<ttFont>
<head>
    <!-- Most of this table will be recalculated by the compiler -->
    <tableVersion value="1.0"/>
    <fontRevision value="2.01"/>
    <checkSumAdjustment value="0xc0d4e6e0"/>
    <magicNumber value="0x5f0f3cf5"/>
    <flags value="00000000 00000011"/>
    <unitsPerEm value="1000"/>
    <created value="Wed Feb  7 19:21:04 2018"/>
    <modified value="Wed Feb  7 19:21:04 2018"/>
    <xMin value="-479"/>
    <yMin value="-711"/>
    <xMax value="1872"/>
    <yMax value="1056"/>
    <macStyle value="00000000 00000000"/>
    <lowestRecPPEM value="3"/>
    <fontDirectionHint value="2"/>
    <indexToLocFormat value="0"/>
    <glyphDataFormat value="0"/>
  </head>
          <CharString index="0">
            -103 callsubr
            -78 callgsubr
            return
          </CharString>
          <CharString index="1">
            -30 -105 callgsubr
            return
          </CharString>
          <CharString index="2">
            -100 callgsubr
            -110 -46 -54 -103 vhcurveto
            -65 callsubr
            return
          </CharString>
          <CharString index="3">
            4 -10 3 -25 -26 vvcurveto
            -85 -34 callsubr
            -31 -31 -5 16 23 vhcurveto
            107 -59 callgsubr
            return
          </CharString>
          <CharString index="4">
            rmoveto
            -102 callgsubr
            return
          </CharString>
          <CharString index="5">
            -123 60 -59 143 29 22 2 2 16 vhcurveto
            -104 callgsubr
            return
          </CharString>
          <CharString index="6">
            -107 callsubr
            -143 124 rmoveto
            -61 callgsubr
            return
          </CharString>
          <CharString index="7">
            45 671 rmoveto
            -85 -117 82 -90 callsubr
            -79 13 hlineto
            66 return
          </CharString>
          <CharString index="8">
            0 10 -20 callsubr
            -123 vlineto
            -23 -6 -16 -33 229 callgsubr
            vhcurveto
            102 -140 -277 274 callsubr
            return
          </CharString>
          <CharString index="9">
            60 callsubr
            -84 callgsubr
            return
          </CharString>
          <CharString index="10">
            44 callgsubr
            2 -16 2 -14 168 callgsubr
            -3 12 -1 11 15 vvcurveto
            23 6 19 96 callsubr
            -116 vlineto
            -23 -6 -15 -33 -21 -18 5 0 vhcurveto
            44 -140 -212 -81 callsubr
            return
          </CharString>
          <CharString index="11">
            vlineto
            25 7 17 35 5 5 -1 0 9 callsubr
            0 -13 3 -16 return
          </CharString>
          <CharString index="12">
            -92 callsubr
            52 callgsubr
            return
          </CharString>
          <CharString index="13">
            218 callsubr
            91 vlineto
            20 -4 29 -2 7 vhcurveto
            return
          </CharString>
          <CharString index="14">
            -53 callgsubr
            -99 callgsubr
            return
          </CharString>
          <CharString index="15">
            -34 vvcurveto
            -88 -98 callsubr
            return
          </CharString>
          <CharString index="16">
            -117 292 callsubr
            -69 callsubr
            return
          </CharString>
          <CharString index="17">
            -554 -107 callgsubr
            return
          </CharString>
          <CharString index="18">
            143 callsubr
            104 callsubr
            return
          </CharString>
          <CharString index="19">
            27 -6 20 0 vhcurveto
            72 -330 hlineto
            -6 -23 -24 -2 4 callgsubr
            return
          </CharString>
          <CharString index="20">
            -93 50 -60 123 230 callgsubr
            vhcurveto
            return
          </CharString>
          <CharString index="21">
            vlineto
            23 6 16 33 return
          </CharString>
          <CharString index="22">
            44 14 22 32 33 -14 22 -44 -45 -13 -22 -33 -32 13 -22 45 hvcurveto
            return
          </CharString>
          <CharString index="23">
            -89 callgsubr
            76 -86 callsubr
            vhcurveto
            39 hlineto
            return
          </CharString>
          <CharString index="24">
            rmoveto
            -66 31 -35 40 -27 vhcurveto
            68 -45 rlineto
            45 -30 12 -8 -21 vvcurveto
            -9 vlineto
            -23 -14 -15 -77 -42 -45 8 6 -20 vhcurveto
            -135 vlineto
            -8 33 34 -5 63 hhcurveto
            148 70 57 109 hvcurveto
            25 vlineto
            64 -33 36 -46 30 vhcurveto
            -81 54 rlineto
            -33 22 -7 8 16 vvcurveto
            8 vlineto
            24 12 14 59 42 53 -10 -5 15 vhcurveto
            133 vlineto
            9 -29 -52 6 -41 hhcurveto
            -149 -56 -58 -103 hvcurveto
            return
          </CharString>
          <CharString index="25">
            12 41 hvcurveto
            28 -86 callsubr
            vhcurveto
            50 129 -44 hlineto
            -33 -6 16 23 hvcurveto
            37 vlineto
            34 return
          </CharString>
          <CharString index="26">
            vlineto
            -103 55 -86 143 62 45 9 13 37 vhcurveto
            -72 callgsubr
            return
          </CharString>
          <CharString index="27">
            -103 46 -48 110 32 28 8 0 vhcurveto
            -59 return
          </CharString>
          <CharString index="28">
            -105 callsubr
            137 return
          </CharString>
          <CharString index="29">
            -54 callgsubr
            74 -108 vlineto
            -446 vmoveto
            137 -103 callgsubr
            return
          </CharString>
          <CharString index="30">
            13 20 468 rmoveto
            -75 40 -45 57 -32 vhcurveto
            107 -58 rlineto
            34 -18 11 -11 -31 vvcurveto
            -15 vlineto
            -28 -24 -21 -63 -61 -57 14 15 -35 vhcurveto
            -145 vlineto
            -8 19 62 -15 74 hhcurveto
            158 79 62 106 hvcurveto
            62 vlineto
            67 -29 39 -53 29 vhcurveto
            -114 64 rlineto
            -42 23 -9 12 37 vvcurveto
            15 vlineto
            26 10 22 58 61 43 -11 -15 35 vhcurveto
            144 vlineto
            8 -19 -49 13 -74 hhcurveto
            -152 -67 -64 -103 hvcurveto
            return
          </CharString>
          <CharString index="31">
            rlineto
            13 11 18 6 28 hhcurveto
            15 11 -2 0 hvcurveto
            115 vlineto
            0 -17 2 -21 -6 callsubr
            return
          </CharString>
          <CharString index="32">
            -104 callgsubr
            114 vlineto
            23 return
          </CharString>
          <CharString index="33">
            rmoveto
            180 callsubr
            150 vlineto
            29 14 20 42 23 27 -5 0 vhcurveto
            -362 -107 callgsubr
            return
          </CharString>
          <CharString index="34">
            140 callgsubr
            hlineto
            27 7 -9 -26 hvcurveto
            -18 123 31 vlineto
            91 -37 46 -102 vhcurveto
            -73 hlineto
            287 callgsubr
            8 vlineto
            17 9 6 20 vhcurveto
            187 166 95 117 return
          </CharString>
          <CharString index="35">
            24 35 151 rmoveto
            -98 59 -63 131 131 59 63 98 299 callsubr
            98 -59 241 callgsubr
            -59 -63 -98 vhcurveto
            232 -283 rmoveto
            -23 -15 -15 -27 -27 -15 15 23 vhcurveto
            278 vlineto
            23 15 15 27 27 15 -15 -23 vhcurveto
            return
          </CharString>
          <CharString index="36">
            hlineto
            -94 callsubr
            return
          </CharString>
          <CharString index="37">
            -117 -288 -54 hlineto
            0 27 5 34 110 46 -54 -103 vhcurveto
            -133 vlineto
            -103 -39 -53 -113 -10 -11 2 0 vhcurveto
            131 vlineto
            0 6 -1 6 vhcurveto
            24 1 4 8 29 vvcurveto
            114 vlineto
            25 -7 17 -35 -18 -24 -5 0 vhcurveto
            -380 -137 59 vlineto
            0 -28 -8 -32 -110 -46 48 103 vhcurveto
            146 vlineto
            103 46 54 110 16 13 -3 0 vhcurveto
            -118 vlineto
            0 -5 1 -5 -35 -7 -17 -25 vhcurveto
            -135 vlineto
            -25 7 -17 35 25 17 8 0 vhcurveto
            return
          </CharString>
          <CharString index="38">
            -95 -107 callgsubr
            return
          </CharString>
          <CharString index="39">
            vlineto
            31 -6 16 0 vhcurveto
            return
          </CharString>
          <CharString index="40">
            rmoveto
            -25 -155 rlineto
            48 hlineto
            18 23 40 63 37 vvcurveto
            20 -10 12 -25 vhcurveto
            endchar
          </CharString>
          <CharString index="41">
            hhcurveto
            217 callgsubr
            hvcurveto
            91 vlineto
            20 -4 29 -2 7 vhcurveto
            -132 hmoveto
            -59 callsubr
          </CharString>
          <CharString index="42">
            -146 vlineto
            -80 callsubr
            return
          </CharString>
          <CharString index="43">
            -7 15 -9 12 -12 8 rrcurveto
            32 22 11 42 46 vvcurveto
            27 vlineto
            105 -56 66 -153 -36 -32 -4 -8 -23 vhcurveto
            -127 vlineto
            9 33 32 3 25 hhcurveto
            54 19 -15 -35 hvcurveto
            -21 vlineto
            -32 -15 -14 -38 vhcurveto
            -59 -129 59 hlineto
            38 15 -16 -33 hvcurveto
            return
          </CharString>
          <CharString index="44">
            vlineto
            -99 callsubr
            return
          </CharString>
          <CharString index="45">
            -82 callgsubr
            endchar
          </CharString>
          <CharString index="46">
            175 callgsubr
            -63 callsubr
            return
          </CharString>
          <CharString index="47">
            rmoveto
            -89 callsubr
            endchar
          </CharString>
          <CharString index="48">
            -104 callsubr
            endchar
          </CharString>
          <CharString index="49">
            0 10 -20 callsubr
            -119 vlineto
            -23 -7 -16 -33 return
          </CharString>
          <CharString index="50">
            -64 callgsubr
            290 78 vlineto
            return
          </CharString>
          <CharString index="51">
            rmoveto
            -54 -39 -27 -50 -15 hvcurveto
            12 -29 -36 6 -44 hhcurveto
            -134 -61 -59 -98 hvcurveto
            -86 vlineto
            -72 33 -51 70 -23 vhcurveto
            -40 -6 -16 -31 -36 vvcurveto
            -16 vlineto
            -64 50 -25 94 vhcurveto
            61 hlineto
            26 8 -6 -14 hvcurveto
            -5 vlineto
            -21 -18 -11 -73 vhcurveto
            -21 hlineto
            -77 -72 29 26 -33 hvcurveto
            -137 vlineto
            -20 27 66 -24 93 hhcurveto
            37 hlineto
            144 67 60 94 hvcurveto
            25 vlineto
            88 -51 38 -101 vhcurveto
            -55 hlineto
            -30 -10 5 17 12 7 10 19 hvcurveto
            0 vlineto
            127 3 58 59 96 vvcurveto
            86 vlineto
            31 -6 27 -13 22 vhcurveto
            1 7 7 1 8 hhcurveto
            35 134 hlineto
            return
          </CharString>
          <CharString index="52">
            rmoveto
            -4 vlineto
            -25 -5 -11 -16 vhcurveto
            -24 -28 39 -52 hhcurveto
            -60 -28 -43 -65 -1 hvcurveto
            -2 79 3 vlineto
            26 5 11 16 vhcurveto
            24 32 -39 48 hhcurveto
            60 28 42 63 1 hvcurveto
            5 vlineto
            endchar
          </CharString>
          <CharString index="53">
            rmoveto
            -40 -54 -41 54 rlineto
            -73 hlineto
            60 -115 rlineto
            107 hlineto
            60 211 callgsubr
          </CharString>
          <CharString index="54">
            -67 callgsubr
            91 117 return
          </CharString>
          <CharString index="55">
            0 10 -20 callsubr
            -123 vlineto
            -23 -6 -16 -33 229 callgsubr
            93 callsubr
            7 -50 -63 6 -62 hhcurveto
            -151 -52 -80 -103 hvcurveto
            -14 callgsubr
            5 13 -1 -1 16 vhcurveto
            -181 274 callsubr
            return
          </CharString>
          <CharString index="56">
            106 193 184 rmoveto
            187 -21 87 -4 12 vhcurveto
            4 -11 22 -78 56 -143 93 -238 rcurveline
            144 693 -148 -174 hlineto
            -179 19 -91 5 -18 vhcurveto
            -4 17 -22 77 -53 136 -91 232 rcurveline
            -148 -693 148 hlineto
            return
          </CharString>
          <CharString index="57">
            rmoveto
            -44 -115 rlineto
            79 hlineto
            75 211 callgsubr
          </CharString>
          <CharString index="58">
            139 33 29 3 6 21 vhcurveto
            return
          </CharString>
          <CharString index="59">
            -86 -38 callgsubr
            return
          </CharString>
          <CharString index="60">
            185 callgsubr
            104 62 25 17 45 vhcurveto
            -20 37 48 -10 54 21 callsubr
            -20 3 -18 5 -17 vhcurveto
            -8 -35 -38 -5 -43 141 callgsubr
            488 211 -107 callsubr
            endchar
          </CharString>
          <CharString index="61">
            -97 callgsubr
            -169 274 callsubr
            -98 callgsubr
            return
          </CharString>
          <CharString index="62">
            rmoveto
            -129 171 rlineto
            -126 hlineto
            111 -171 rlineto
            return
          </CharString>
          <CharString index="63">
            rmoveto
            229 callgsubr
            hvcurveto
            97 -54 59 -121 98 callgsubr
            vhcurveto
            54 283 vlineto
            0 10 -20 callsubr
            -123 vlineto
            -23 -6 -16 -33 vhcurveto
            return
          </CharString>
          <CharString index="64">
            71 364 rmoveto
            16 callgsubr
            84 hlineto
            return
          </CharString>
          <CharString index="65">
            -121 75 -62 140 55 39 6 7 37 vhcurveto
            186 callsubr
            -34 -5 -50 hhcurveto
            -56 -29 12 47 hvcurveto
            return
          </CharString>
          <CharString index="66">
            94 callgsubr
            33 2 13 119 callsubr
            return
          </CharString>
          <CharString index="67">
            154 callgsubr
            351 130 -201 156 174 130 -174 147 201 -4 callgsubr
            return
          </CharString>
          <CharString index="68">
            58 17 33 42 42 -16 33 -58 -59 -17 41 callgsubr
            return
          </CharString>
          <CharString index="69">
            vlineto
            -46 13 -30 25 -19 vhcurveto
            -29 -17 -15 -31 -54 vvcurveto
            return
          </CharString>
          <CharString index="70">
            153 hlineto
            105 188 rlineto
            0 0 0 0 vhcurveto
            366 vmoveto
            29 callgsubr
          </CharString>
          <CharString index="71">
            rmoveto
            73 hlineto
            -60 115 rlineto
            -107 hlineto
            -60 -115 rlineto
            73 hlineto
            41 54 rlineto
            endchar
          </CharString>
          <CharString index="72">
            -48 callgsubr
            137 vlineto
            return
          </CharString>
          <CharString index="73">
            vlineto
            -23 -5 -16 return
          </CharString>
          <CharString index="74">
            33 42 42 -17 33 return
          </CharString>
          <CharString index="75">
            37 187 590 rmoveto
            256 callgsubr
            441 hlineto
            6 10 18 7 20 hhcurveto
            19 7 -8 -16 hvcurveto
            -430 153 467 268 callsubr
            -49 -42 -18 -11 -20 vhcurveto
            return
          </CharString>
          <CharString index="76">
            -20 26 37 -10 53 hhcurveto
            29 22 4 3 15 hvcurveto
            -59 140 279 callsubr
            vlineto
            7 -377 -95 callgsubr
            endchar
          </CharString>
          <CharString index="77">
            rmoveto
            -35 -7 35 44 42 7 35 35 35 7 -34 -43 -44 -7 -35 -35 hvcurveto
            1 -94 rmoveto
            108 36 75 98 97 -36 74 -108 -108 -36 -74 -97 -98 36 -75 108 hvcurveto
            return
          </CharString>
          <CharString index="78">
            vvcurveto
            23 3 16 33 33 3 -16 -23 vhcurveto
            return
          </CharString>
          <CharString index="79">
            -53 -17 23 36 hvcurveto
            70 vlineto
            126 -125 rlineto
            -2 -17 -16 -2 -23 hhcurveto
            223 16 callsubr
            return
          </CharString>
          <CharString index="80">
            24 72 callgsubr
            186 return
          </CharString>
          <CharString index="81">
            -123 -50 -59 -93 hvcurveto
            return
          </CharString>
          <CharString index="82">
            vlineto
            -42 callsubr
            return
          </CharString>
          <CharString index="83">
            rmoveto
            -262 -317 rlineto
            162 hlineto
            52 62 24 29 35 62 8 27 269 callsubr
            -3 -52 -17 vvcurveto
            -5 130 562 289 callgsubr
            -218 -78 60 vlineto
            -28 callgsubr
            -14 2 -8 140 callsubr
            -2 9 8 205 callgsubr
            return
          </CharString>
          <CharString index="84">
            402 256 9 callgsubr
            -872 -117 270 vlineto
            13 callsubr
            106 113 rlineto
            -99 callgsubr
            250 -63 hlineto
            0 -26 5 -33 -123 -29 -59 -103 vhcurveto
            211 -113 58 callsubr
            return
          </CharString>
          <CharString index="85">
            vlineto
            0 26 222 callgsubr
            50 53 103 vhcurveto
            return
          </CharString>
          <CharString index="86">
            vvcurveto
            -42 -38 callsubr
            return
          </CharString>
          <CharString index="87">
            -13 -34 vvcurveto
            return
          </CharString>
          <CharString index="88">
            -58 callgsubr
            -125 79 rmoveto
            219 callsubr
            -133 -35 -54 -103 vhcurveto
            -23 -321 rmoveto
            -99 callgsubr
            377 117 -780 10 callgsubr
            endchar
          </CharString>
          <CharString index="89">
            182 callsubr
            14 20 42 return
          </CharString>
          <CharString index="90">
            -123 60 -59 143 return
          </CharString>
          <CharString index="91">
            -13 callsubr
            -63 -103 vhcurveto
            -29 133 34 vlineto
            212 callsubr
            return
          </CharString>
          <CharString index="92">
            hhcurveto
            -11 -11 -1 -2 -12 hvcurveto
            -115 vlineto
            1 5 4 0 3 hhcurveto
            20 9 -11 -30 11 hvcurveto
            26 -72 rlineto
            return
          </CharString>
          <CharString index="93">
            129 40 368 rmoveto
            71 callgsubr
            -79 33 -48 79 -22 vhcurveto
            -50 -110 128 callsubr
            36 96 rlineto
            1 hlineto
            2 hlineto
            36 -96 128 callsubr
            -51 111 rlineto
            80 24 28 53 86 vvcurveto
            150 callgsubr
            -634 -117 91 76 callsubr
            return
          </CharString>
          <CharString index="94">
            5 11 vlineto
            126 51 59 98 hvcurveto
            58 vlineto
            103 -47 57 -113 -113 -46 return
          </CharString>
          <CharString index="95">
            vlineto
            0 -17 -7 -24 -36 -9 17 23 vhcurveto
            return
          </CharString>
          <CharString index="96">
            -137 -25 callsubr
            return
          </CharString>
          <CharString index="97">
            rmoveto
            0 callsubr
            return
          </CharString>
          <CharString index="98">
            -107 111 692 rmoveto
            -46 -102 rlineto
            -60 -127 53 -316 hlineto
            -95 38 -61 119 55 34 16 0 vhcurveto
            134 vlineto
            0 -22 -14 -35 -27 -11 14 22 vhcurveto
            300 89 127 -89 102 vlineto
            return
          </CharString>
          <CharString index="99">
            4 -9 2 -16 -23 vvcurveto
            -83 vlineto
            -23 -3 -16 -36 -24 -15 5 0 vhcurveto
            77 -135 -283 135 81 vlineto
            -6 23 15 -2 29 hhcurveto
            90 61 49 110 hvcurveto
            89 vlineto
            20 -2 19 -5 11 vhcurveto
            return
          </CharString>
          <CharString index="100">
            rmoveto
            38 23 22 40 vhcurveto
            129 190 90 117 return
          </CharString>
          <CharString index="101">
            -143 33 callsubr
            return
          </CharString>
          <CharString index="102">
            -33 -16 5 33 hvcurveto
            return
          </CharString>
          <CharString index="103">
            -49 callgsubr
            12 -3 13 -2 13 -3 -45 -97 rcurveline
            143 hlineto
            33 89 rlineto
            3 3 0 3 hhcurveto
            33 -89 128 callsubr
            -57 124 rlineto
            40 27 20 43 61 vvcurveto
            210 callgsubr
          </CharString>
          <CharString index="104">
            13 35 hvcurveto
            91 vlineto
            42 11 14 0 vhcurveto
            53 120 -258 -126 60 hlineto
            0 -6 -19 -30 vvcurveto
            -97 vlineto
            -113 return
          </CharString>
          <CharString index="105">
            -287 -12 callgsubr
            return
          </CharString>
          <CharString index="106">
            57 106 callgsubr
            -57 113 callgsubr
          </CharString>
          <CharString index="107">
            103 -56 60 -123 -123 -56 -60 -103 return
          </CharString>
          <CharString index="108">
            7 callgsubr
            208 -328 rmoveto
            137 -103 callgsubr
            return
          </CharString>
          <CharString index="109">
            -103 55 -60 123 123 55 60 103 vhcurveto
            return
          </CharString>
          <CharString index="110">
            hhcurveto
            38 10 -12 -30 hvcurveto
            return
          </CharString>
          <CharString index="111">
            139 vlineto
            -6 -20 -37 -10 -42 hhcurveto
            -47 -24 10 39 hvcurveto
            226 vlineto
            39 24 10 47 42 37 -10 -6 20 vhcurveto
            139 vlineto
            9 -33 -29 6 -63 hhcurveto
            -129 -67 -58 -116 hvcurveto
            return
          </CharString>
          <CharString index="112">
            42 35 163 rmoveto
            -104 70 -64 153 94 47 21 21 39 vhcurveto
            335 -146 -234 vlineto
            -4 -8 -15 -4 -13 hhcurveto
            -56 -13 20 29 hvcurveto
            329 vlineto
            30 26 22 57 52 53 -10 -13 34 vhcurveto
            142 vlineto
            9 -27 -56 10 -58 hhcurveto
            -153 -80 -69 -103 hvcurveto
            return
          </CharString>
          <CharString index="113">
            213 -78 callsubr
            return
          </CharString>
          <CharString index="114">
            rmoveto
            -53 108 151 hlineto
            36 3 -25 -29 hvcurveto
            -41 97 callsubr
            return
          </CharString>
          <CharString index="115">
            rmoveto
            -58 -18 23 46 hvcurveto
            56 vlineto
            132 -111 rlineto
            -9 -12 -18 -5 -26 hhcurveto
            return
          </CharString>
          <CharString index="116">
            vhcurveto
            118 vlineto
            return
          </CharString>
          <CharString index="117">
            30 -9 17 0 vhcurveto
            return
          </CharString>
          <CharString index="118">
            117 38 146 rmoveto
            -111 61 -66 185 87 95 12 13 37 9 callsubr
            -10 -48 -70 -12 -91 hhcurveto
            -96 -20 22 43 hvcurveto
            49 -86 callsubr
            vhcurveto
            54 hlineto
            -66 -95 115 -12 68 99 rlineto
            5 -6 2 -8 -13 vvcurveto
            -38 123 51 vlineto
            91 -37 34 -102 vhcurveto
            -173 hlineto
            287 callgsubr
            7 vlineto
            17 9 6 20 vhcurveto
            237 155 140 117 -623 -117 343 -42 -97 hlineto
            -113 -56 -28 -96 hvcurveto
            -8 vlineto
            1 -44 16 -31 27 -16 rrcurveto
            -28 -19 -15 -23 -48 vvcurveto
            return
          </CharString>
          <CharString index="119">
            -13 callsubr
            -63 -103 -14 3 -15 0 vhcurveto
            133 hlineto
            0 -3 return
          </CharString>
          <CharString index="120">
            -83 callgsubr
            -102 51 -65 129 -10 vhcurveto
            -119 -97 rlineto
            -4 vlineto
            181 -14 return
          </CharString>
          <CharString index="121">
            -87 callsubr
            221 callsubr
          </CharString>
          <CharString index="122">
            rmoveto
            -17 callgsubr
            -135 vlineto
            -6 0 -6 -6 vvcurveto
            -7 -27 -29 -4 -33 hhcurveto
            -53 -27 -82 callsubr
            10 13 0 vhcurveto
            38 117 return
          </CharString>
          <CharString index="123">
            vmoveto
            -30 callgsubr
            return
          </CharString>
          <CharString index="124">
            rmoveto
            -4 123 9 vlineto
            98 -47 59 -121 -28 -19 -1 -4 -22 vhcurveto
            54 238 117 -673 -117 299 -370 vlineto
            0 -17 -8 -25 -35 -7 17 25 vhcurveto
            125 80 callsubr
            -111 vlineto
            -72 22 -45 51 -21 vhcurveto
            -87 -141 rlineto
            151 hlineto
            78 136 rlineto
            1 0 0 0 hvcurveto
            -94 137 208 callgsubr
            14 19 2 23 119 callsubr
            endchar
          </CharString>
          <CharString index="125">
            rmoveto
            74 callsubr
            82 117 -1011 -117 789 -63 -659 50 callgsubr
            endchar
          </CharString>
          <CharString index="126">
            274 callsubr
            -43 callsubr
            return
          </CharString>
          <CharString index="127">
            263 callsubr
            -126 hlineto
            return
          </CharString>
          <CharString index="128">
            -52 callgsubr
            -534 -117 103 vlineto
            20 callsubr
            return
          </CharString>
          <CharString index="129">
            -65 callsubr
            137 260 callsubr
            -169 19 callsubr
            -254 -209 -44 callsubr
            endchar
          </CharString>
          <CharString index="130">
            507 -79 callgsubr
            return
          </CharString>
          <CharString index="131">
            104 -79 160 48 32 3 8 37 vhcurveto
            -85 -107 callgsubr
            -222 -459 vlineto
            -8 -33 -27 -2 -47 141 callgsubr
            endchar
          </CharString>
          <CharString index="132">
            1 10 8 0 8 hhcurveto
            31 23 -11 -31 22 hvcurveto
            52 -72 rlineto
            return
          </CharString>
          <CharString index="133">
            -27 -19 8 28 27 19 8 27 32 23 -3 -5 35 hvcurveto
            176 vlineto
            91 -58 53 -100 -59 -29 -27 -22 -11 vhcurveto
            22 -11 -30 27 -58 hhcurveto
            -100 -54 -53 -91 hvcurveto
            -70 vlineto
            -109 53 -53 123 13 16 2 1 7 vhcurveto
            113 vlineto
            -8 -14 -1 -10 hhcurveto
            -47 -9 23 29 hvcurveto
            60 vlineto
            21 5 14 29 30 5 -14 -21 vhcurveto
            -36 124 36 vlineto
            21 5 14 30 29 5 -14 -21 vhcurveto
            -51 vlineto
            -89 -9 -46 -52 -86 vvcurveto
            return
          </CharString>
          <CharString index="134">
            rmoveto
            -380 -137 59 vlineto
            0 -28 -8 -32 -110 -46 48 103 vhcurveto
            146 vlineto
            103 46 54 110 16 13 -3 0 vhcurveto
            -118 vlineto
            0 -5 1 -5 -35 -7 -17 -25 vhcurveto
            -135 vlineto
            -25 7 -17 35 25 17 8 0 vhcurveto
            380 281 callsubr
            vlineto
            4 13 22 1 14 hhcurveto
            121 37 -59 -98 hvcurveto
            -9 -123 4 vlineto
            30 -10 12 -38 -13 -13 -2 -3 -10 vhcurveto
            endchar
          </CharString>
          <CharString index="135">
            vlineto
            -103 46 -60 123 217 callgsubr
            vhcurveto
            94 160 callsubr
            36 13 -20 -32 hvcurveto
            -43 vlineto
            -91 callsubr
            return
          </CharString>
          <CharString index="136">
            43 callsubr
            -20 3 -17 140 callsubr
            -3 32 callgsubr
            -74 -39 vlineto
            90 callsubr
            vlineto
            327 191 -107 callsubr
            endchar
          </CharString>
          <CharString index="137">
            23 5 13 -20 callgsubr
            return
          </CharString>
          <CharString index="138">
            212 -89 callgsubr
            65 -86 callsubr
            vhcurveto
            39 hlineto
            return
          </CharString>
          <CharString index="139">
            268 callgsubr
            -5 -121 0 vvcurveto
            0 -3 119 -32 170 vhcurveto
            -34 182 rlineto
            -148 hlineto
            118 -590 rlineto
            52 hlineto
            -28 -149 rlineto
            146 hlineto
            140 739 rlineto
            return
          </CharString>
          <CharString index="140">
            -49 -64 -114 vhcurveto
            110 callgsubr
            return
          </CharString>
          <CharString index="141">
            389 17 rmoveto
            -98 callgsubr
            return
          </CharString>
          <CharString index="142">
            -104 300 593 rmoveto
            -44 -23 -14 -29 -46 hvcurveto
            40 256 callgsubr
            434 vlineto
            10 21 36 10 41 hhcurveto
            23 139 hlineto
            return
          </CharString>
          <CharString index="143">
            279 callsubr
            -55 vlineto
            -17 callgsubr
            -129 vlineto
            -9 -37 -41 -6 -45 141 callgsubr
            12 callsubr
            20 14 117 callsubr
            return
          </CharString>
          <CharString index="144">
            -5 41 544 rmoveto
            13 34 34 5 52 hhcurveto
            55 17 -20 -28 hvcurveto
            -47 vlineto
            -33 -14 -16 -37 vhcurveto
            -76 -140 78 hlineto
            37 14 -8 -33 hvcurveto
            -58 vlineto
            -29 -17 -19 -54 -61 -43 11 15 -35 vhcurveto
            -142 vlineto
            -8 19 49 -13 74 hhcurveto
            152 67 65 103 hvcurveto
            96 vlineto
            66 -29 27 -41 4 vhcurveto
            41 10 27 39 58 vvcurveto
            69 vlineto
            104 -69 64 -152 -58 -37 -5 -9 -27 vhcurveto
            endchar
          </CharString>
          <CharString index="145">
            -129 71 -39 122 29 26 3 5 17 vhcurveto
            -61 133 -103 callgsubr
            return
          </CharString>
          <CharString index="146">
            -64 hhcurveto
            -17 -13 -1 -2 -15 hvcurveto
            return
          </CharString>
          <CharString index="147">
            50 callgsubr
            102 vlineto
            30 -9 17 0 vhcurveto
            return
          </CharString>
          <CharString index="148">
            38 247 callgsubr
            128 vlineto
            99 -58 60 -109 -49 -18 -4 -5 -15 vhcurveto
            46 vlineto
            36 20 30 55 61 43 -9 -15 35 vhcurveto
            142 vlineto
            8 -19 -49 13 -74 hhcurveto
            -165 -57 -85 -103 hvcurveto
            249 -338 rmoveto
            -31 -9 -19 -41 -41 -8 20 30 vhcurveto
            149 vlineto
            0 21 6 29 32 17 -12 -33 vhcurveto
            endchar
          </CharString>
          <CharString index="149">
            rmoveto
            75 -115 rlineto
            79 hlineto
            -44 211 callgsubr
          </CharString>
          <CharString index="150">
            79 hlineto
            -28 callgsubr
            return
          </CharString>
          <CharString index="151">
            45 693 rmoveto
            -693 return
          </CharString>
          <CharString index="152">
            507 -101 callsubr
            return
          </CharString>
          <CharString index="153">
            70 callgsubr
            -107 callgsubr
            return
          </CharString>
          <CharString index="154">
            rmoveto
            9 37 23 4 47 hhcurveto
            23 7 -9 -18 hvcurveto
            -47 vlineto
            -15 -4 -11 -23 vhcurveto
            -50 -87 50 hlineto
            23 4 -10 -16 hvcurveto
            -48 vlineto
            -18 -7 -9 -23 -47 -23 4 9 -37 vhcurveto
            -87 vlineto
            -5 15 26 -7 70 hhcurveto
            83 38 40 70 hvcurveto
            51 vlineto
            36 -12 22 -20 13 vhcurveto
            22 14 10 23 31 vvcurveto
            50 vlineto
            70 -38 40 -83 -70 -26 -7 -5 -15 vhcurveto
            endchar
          </CharString>
          <CharString index="155">
            -73 134 63 vlineto
            41 17 21 61 36 35 -10 0 vhcurveto
            -48 vlineto
            return
          </CharString>
          <CharString index="156">
            -426 -470 784 rmoveto
            26 callgsubr
            136 153 callsubr
            -39 138 callsubr
            231 -115 rmoveto
            1 5 4 0 3 hhcurveto
            20 9 -11 -30 11 hvcurveto
            26 -72 rlineto
            119 237 callsubr
            return
          </CharString>
          <CharString index="157">
            rmoveto
            -4 162 vlineto
            52 62 55 66 32 70 15 41 rlinecurve
            136 vlineto
            356 vmoveto
            -544 -117 544 hlineto
            -63 vmoveto
            -414 -129 99 hlineto
            131 callgsubr
            173 hlineto
            endchar
          </CharString>
          <CharString index="158">
            385 671 rmoveto
            -425 -117 425 hlineto
            -157 -209 33 callgsubr
            return
          </CharString>
          <CharString index="159">
            rmoveto
            289 callsubr
            56 vlineto
            127 -107 rlineto
            -12 -11 -18 -6 -27 hhcurveto
            return
          </CharString>
          <CharString index="160">
            -123 252 callsubr
            66 -38 113 vhcurveto
            11 hlineto
            29 -2 5 -16 -19 vvcurveto
            -19 63 callsubr
            return
          </CharString>
          <CharString index="161">
            163 -49 callgsubr
            return
          </CharString>
          <CharString index="162">
            hlineto
            33 -30 -46 16 -60 80 callgsubr
            return
          </CharString>
          <CharString index="163">
            rmoveto
            -32 -103 -33 -107 -13 -57 -11 -56 rlinecurve
            -10 56 -12 55 -34 107 -33 105 rcurveline
            -154 hlineto
            165 -478 rlineto
            -215 152 215 vlineto
            165 478 rlineto
            return
          </CharString>
          <CharString index="164">
            -94 hlineto
            -151 -69 -74 -93 hvcurveto
            -13 141 vlineto
            41 35 10 56 vhcurveto
            62 hlineto
            99 30 -24 -66 hvcurveto
            -13 -82 -117 82 -90 callsubr
            -82 return
          </CharString>
          <CharString index="165">
            rmoveto
            0 -15 -5 -25 -35 -11 15 25 vhcurveto
            79 vlineto
            24 11 16 35 23 17 -5 0 vhcurveto
            return
          </CharString>
          <CharString index="166">
            vlineto
            -51 callgsubr
            return
          </CharString>
          <CharString index="167">
            11 callgsubr
            -31 -22 3 6 -29 vhcurveto
            return
          </CharString>
          <CharString index="168">
            vvcurveto
            -146 -46 callgsubr
            return
          </CharString>
          <CharString index="169">
            68 253 59 rmoveto
            26 33 36 47 19 40 rrcurveto
            2 hlineto
            -8 -34 -8 -63 -57 vvcurveto
            -25 132 -103 callgsubr
            -574 -117 134 -176 vlineto
            -90 callgsubr
            188 78 -212 vlineto
            -266 -342 rlineto
            162 hlineto
            return
          </CharString>
          <CharString index="170">
            vlineto
            -25 -9 -14 -35 -23 -21 99 callgsubr
            return
          </CharString>
          <CharString index="171">
            16 12 -1 -3 10 hvcurveto
            -42 vlineto
            -91 callsubr
            -557 -117 126 vlineto
            -61 callgsubr
            -29 -7 -16 -19 -9 vhcurveto
            20 -25 -38 9 -54 hhcurveto
            -42 43 callsubr
            -20 3 -17 0 vhcurveto
            return
          </CharString>
          <CharString index="172">
            -138 24 callsubr
          </CharString>
          <CharString index="173">
            -33 -42 -42 16 -33 59 return
          </CharString>
          <CharString index="174">
            rlineto
            11 hlineto
            21 -1 11 -8 -15 vvcurveto
            -14 -12 -9 -20 -12 -15 2 3 -7 vhcurveto
            -66 vlineto
            -4 18 17 -2 17 hhcurveto
            61 40 32 53 49 -38 16 -20 2 hvcurveto
            return
          </CharString>
          <CharString index="175">
            vlineto
            102 callgsubr
            return
          </CharString>
          <CharString index="176">
            rmoveto
            142 callgsubr
            -220 hmoveto
            142 callgsubr
            endchar
          </CharString>
          <CharString index="177">
            86 callsubr
            14 20 42 return
          </CharString>
          <CharString index="178">
            vlineto
            -72 16 -36 71 -53 vhcurveto
            -134 -139 152 -22 return
          </CharString>
          <CharString index="179">
            15 45 693 rmoveto
            -398 vlineto
            5 86 27 4 40 hhcurveto
            46 14 -11 -32 hvcurveto
            -82 vlineto
            -30 -17 -18 -54 -47 -46 9 17 -54 vhcurveto
            -140 vlineto
            -14 44 39 -9 70 hhcurveto
            152 64 65 103 hvcurveto
            122 vlineto
            104 -63 49 -98 -25 -12 0 -1 -17 vhcurveto
            117 192 140 vlineto
            endchar
          </CharString>
          <CharString index="180">
            228 callgsubr
            18 -86 callsubr
            vhcurveto
            50 129 -44 hlineto
            -33 -6 16 23 hvcurveto
            27 255 callsubr
            return
          </CharString>
          <CharString index="181">
            161 callsubr
            195 callsubr
            return
          </CharString>
          <CharString index="182">
            hlineto
            0 11 -13 -92 callsubr
            return
          </CharString>
          <CharString index="183">
            186 callgsubr
            140 hmoveto
            -82 callgsubr
            return
          </CharString>
          <CharString index="184">
            rmoveto
            137 callgsubr
            -673 -117 452 -63 -322 144 callsubr
            endchar
          </CharString>
          <CharString index="185">
            162 callsubr
            endchar
          </CharString>
          <CharString index="186">
            316 554 rmoveto
            -120 vlineto
            -131 120 rlineto
            -145 hmoveto
            -172 vlineto
            -41 12 -28 22 -19 vhcurveto
            -21 -19 -13 -29 -42 vvcurveto
            -50 vlineto
            return
          </CharString>
          <CharString index="187">
            -96 callsubr
            -110 -46 -54 -103 vhcurveto
            return
          </CharString>
          <CharString index="188">
            -185 45 574 rmoveto
            -574 151 574 vlineto
            return
          </CharString>
          <CharString index="189">
            rmoveto
            -29 -15 -11 -20 -17 vhcurveto
            -21 17 -14 11 29 vvcurveto
            return
          </CharString>
          <CharString index="190">
            175 callgsubr
            hlineto
            -99 callsubr
            -101 callgsubr
            return
          </CharString>
          <CharString index="191">
            265 747 rmoveto
            -157 -44 vlineto
            -130 -56 -72 -107 hvcurveto
            -279 vlineto
            -84 43 -52 86 60 35 32 14 11 vhcurveto
            -42 147 747 vlineto
            -151 -602 rmoveto
            -6 -10 -22 -6 -20 hhcurveto
            -20 -8 10 16 hvcurveto
            247 vlineto
            35 17 15 30 vhcurveto
            33 hlineto
            return
          </CharString>
          <CharString index="192">
            vvcurveto
            88 callsubr
          </CharString>
          <CharString index="193">
            -169 -39 callgsubr
            150 vlineto
            29 return
          </CharString>
          <CharString index="194">
            -94 callsubr
            74 hlineto
            -1 -11 -1 -11 -12 201 callgsubr
            return
          </CharString>
          <CharString index="195">
            -11 callsubr
            endchar
          </CharString>
          <CharString index="196">
            -117 254 hlineto
            0 11 -20 callsubr
            -72 vlineto
            -23 -6 -16 -33 vhcurveto
            -71 -129 61 hlineto
            37 12 -21 -28 hvcurveto
            -47 vlineto
            -38 -29 -11 -38 -42 -40 6 7 -37 vhcurveto
            -127 vlineto
            -8 46 35 -5 40 hhcurveto
            136 69 57 116 hvcurveto
            endchar
          </CharString>
          <CharString index="197">
            -26 callsubr
            102 callsubr
            return
          </CharString>
          <CharString index="198">
            hlineto
            30 40 61 93 58 vvcurveto
            36 -17 21 -44 vhcurveto
            return
          </CharString>
          <CharString index="199">
            -113 -56 -39 -103 hvcurveto
            return
          </CharString>
          <CharString index="200">
            vhcurveto
            124 vlineto
            return
          </CharString>
          <CharString index="201">
            rmoveto
            -33 -10 15 23 hvcurveto
            79 vlineto
            121 -112 rlineto
            -3 -5 -7 -2 -10 hhcurveto
            endchar
          </CharString>
          <CharString index="202">
            rmoveto
            4 -10 3 -25 -26 vvcurveto
            return
          </CharString>
          <CharString index="203">
            33 -55 callgsubr
            return
          </CharString>
          <CharString index="204">
            258 callgsubr
            -10 vhcurveto
            25 -22 -37 13 -59 hhcurveto
            return
          </CharString>
          <CharString index="205">
            vlineto
            23 3 17 32 32 3 -17 -23 vhcurveto
            endchar
          </CharString>
          <CharString index="206">
            rmoveto
            12 callsubr
            17 17 117 callsubr
            return
          </CharString>
          <CharString index="207">
            296 callgsubr
            -148 -242 rmoveto
            -99 callgsubr
            return
          </CharString>
          <CharString index="208">
            529 256 -58 callgsubr
            return
          </CharString>
          <CharString index="209">
            -75 -75 callgsubr
            109 return
          </CharString>
          <CharString index="210">
            -103 34 105 callgsubr
            return
          </CharString>
          <CharString index="211">
            -59 -16 41 callgsubr
            return
          </CharString>
          <CharString index="212">
            -103 61 -38 108 vhcurveto
            return
          </CharString>
          <CharString index="213">
            rmoveto
            -114 vlineto
            0 19 9 28 44 21 -16 -48 vhcurveto
            -140 vlineto
            -40 -13 -20 -89 -89 -12 10 37 vhcurveto
            2 vlineto
            37 15 5 33 vhcurveto
            72 122 -77 hlineto
            -33 -6 16 23 hvcurveto
            121 vlineto
            34 2 25 49 vhcurveto
            return
          </CharString>
          <CharString index="214">
            92 callgsubr
            -469 -117 247 125 callgsubr
            -79 -46 -25 -47 -23 hvcurveto
            return
          </CharString>
          <CharString index="215">
            173 hlineto
            54 64 23 26 32 46 17 37 rlinecurve
            return
          </CharString>
          <CharString index="216">
            -117 134 -207 return
          </CharString>
          <CharString index="217">
            -101 callsubr
            -50 -21 -13 -68 vhcurveto
            -24 return
          </CharString>
          <CharString index="218">
            -96 callsubr
            -35 -28 -5 -11 -22 vhcurveto
            4 -21 -45 3 -35 hhcurveto
            -128 -76 -58 -123 hvcurveto
            -161 vlineto
            84 callgsubr
            vhcurveto
            30 return
          </CharString>
          <CharString index="219">
            -99 vlineto
            -46 10 -32 21 -21 vhcurveto
            -16 -17 -10 -24 -34 vvcurveto
            -54 vlineto
            -103 52 -46 123 123 59 51 104 vhcurveto
            258 -140 -64 vlineto
            -3 -9 -16 -2 -16 hhcurveto
            -35 -6 14 24 hvcurveto
            endchar
          </CharString>
          <CharString index="220">
            -70 52 285 callgsubr
            32 91 callgsubr
            -32 71 callsubr
            82 86 72 -53 -169 -181 return
          </CharString>
          <CharString index="221">
            63 callsubr
            82 vlineto
            0 33 -6 37 95 return
          </CharString>
          <CharString index="222">
            -89 callgsubr
            65 -86 callsubr
            vhcurveto
            39 hlineto
            118 vmoveto
            -39 hlineto
            return
          </CharString>
          <CharString index="223">
            -309 -398 rlineto
            162 hlineto
            45 59 48 61 29 47 25 54 rlinecurve
            return
          </CharString>
          <CharString index="224">
            vvcurveto
            30 callsubr
            return
          </CharString>
          <CharString index="225">
            rmoveto
            143 callsubr
            return
          </CharString>
          <CharString index="226">
            hhcurveto
            38 20 -12 -30 hvcurveto
            return
          </CharString>
          <CharString index="227">
            -29 callsubr
            endchar
          </CharString>
          <CharString index="228">
            145 -101 callsubr
            return
          </CharString>
          <CharString index="229">
            rmoveto
            -106 -284 rlineto
            -89 159 -76 94 76 42 84 -42 289 vlineto
            -94 -289 rmoveto
            -72 hlineto
            72 208 rlineto
            -103 325 267 callgsubr
            return
          </CharString>
          <CharString index="230">
            vvcurveto
            -26 vlineto
            132 callgsubr
          </CharString>
          <CharString index="231">
            -41 callgsubr
            -113 return
          </CharString>
          <CharString index="232">
            145 69 53 114 hvcurveto
            return
          </CharString>
          <CharString index="233">
            -1 8 295 callgsubr
            -136 vlineto
            -23 -6 -15 -33 vhcurveto
            -20 -18 5 -1 hhcurveto
            85 -8 -55 51 -112 251 callsubr
            84 38 117 return
          </CharString>
          <CharString index="234">
            205 callsubr
            116 170 callsubr
            return
          </CharString>
          <CharString index="235">
            rlineto
            143 hlineto
            return
          </CharString>
          <CharString index="236">
            -117 270 vlineto
            -53 callgsubr
            return
          </CharString>
          <CharString index="237">
            -5 callsubr
            142 vlineto
            38 22 19 42 10 11 0 -1 10 vhcurveto
            -1 -5 0 -7 -6 vvcurveto
            -65 callsubr
            137 return
          </CharString>
          <CharString index="238">
            -81 callsubr
            endchar
          </CharString>
          <CharString index="239">
            177 286 rmoveto
            110 vlineto
            118 -120 rlineto
            182 callgsubr
            118 268 rmoveto
            -169 vlineto
            -118 126 rlineto
            43 vlineto
            return
          </CharString>
          <CharString index="240">
            60 309 693 rmoveto
            -114 -312 rlineto
            312 -150 -693 150 331 vlineto
            119 -331 rlineto
            167 hlineto
            -139 358 127 335 rlineto
            return
          </CharString>
          <CharString index="241">
            rmoveto
            -36 -16 15 25 hvcurveto
            119 vlineto
            112 -98 rlineto
            -51 vlineto
            -7 -22 -14 -3 -24 hhcurveto
            return
          </CharString>
          <CharString index="242">
            -61 callgsubr
            -16 -2 -12 -5 -10 vhcurveto
            26 -29 -45 15 -65 hhcurveto
            -8 hlineto
            return
          </CharString>
          <CharString index="243">
            rmoveto
            -6 -36 -4 -60 -51 vvcurveto
            -26 131 -103 callgsubr
            return
          </CharString>
          <CharString index="244">
            vlineto
            -4 -12 -15 -3 -19 hhcurveto
            -33 -21 13 35 hvcurveto
            return
          </CharString>
          <CharString index="245">
            31 39 callsubr
            return
          </CharString>
          <CharString index="246">
            vlineto
            105 callsubr
            return
          </CharString>
          <CharString index="247">
            0 168 callgsubr
            0 return
          </CharString>
          <CharString index="248">
            vvcurveto
            -16 vlineto
            -71 36 -57 77 -22 vhcurveto
            -141 -162 rlineto
            175 hlineto
            141 162 rlineto
            0 vlineto
            -112 -107 callgsubr
            -222 vlineto
            endchar
          </CharString>
          <CharString index="249">
            hhcurveto
            125 callsubr
            return
          </CharString>
          <CharString index="250">
            58 106 callgsubr
            -58 return
          </CharString>
          <CharString index="251">
            -129 99 75 callsubr
            return
          </CharString>
          <CharString index="252">
            rmoveto
            26 callgsubr
            126 153 callsubr
            -29 138 callsubr
            endchar
          </CharString>
          <CharString index="253">
            rlineto
            108 callsubr
            endchar
          </CharString>
          <CharString index="254">
            vlineto
            -128 107 -76 callsubr
            return
          </CharString>
          <CharString index="255">
            -70 20 -48 50 -23 vhcurveto
            -104 -187 270 callsubr
            98 176 rlineto
            1 hlineto
            102 vmoveto
            -64 callgsubr
            240 78 vlineto
            return
          </CharString>
          <CharString index="256">
            rmoveto
            -42 -248 rlineto
            64 197 callgsubr
          </CharString>
          <CharString index="257">
            281 callgsubr
            16 -86 callsubr
            vhcurveto
            50 129 -44 hlineto
            -33 -6 16 23 hvcurveto
            20 255 callsubr
            return
          </CharString>
          <CharString index="258">
            rmoveto
            105 vlineto
            139 -141 rlineto
            -10 -16 -25 -7 -35 hhcurveto
            -53 -10 20 33 hvcurveto
            return
          </CharString>
          <CharString index="259">
            196 634 -196 hlineto
            236 -185 rmoveto
            196 185 -196 hlineto
            return
          </CharString>
          <CharString index="260">
            hlineto
            -98 131 rlineto
            68 -51 return
          </CharString>
          <CharString index="261">
            -58 -25 -24 -30 -20 return
          </CharString>
          <CharString index="262">
            -147 70 -56 163 60 33 2 8 49 vhcurveto
            126 vlineto
            -7 -46 -36 -3 -60 hhcurveto
            -63 -33 21 58 hvcurveto
            95 vlineto
            -4 16 30 -3 21 hhcurveto
            return
          </CharString>
          <CharString index="263">
            -86 39 callgsubr
          </CharString>
          <CharString index="264">
            240 callsubr
            -76 vlineto
            -103 46 -60 123 217 callgsubr
            vhcurveto
            57 160 callsubr
            return
          </CharString>
          <CharString index="265">
            29 -26 -39 16 -48 hhcurveto
            -118 -49 -56 -103 -1 294 callsubr
            39 16 29 26 vhcurveto
            -29 25 38 -16 48 hhcurveto
            return
          </CharString>
          <CharString index="266">
            rmoveto
            43 13 24 31 32 -13 24 -43 -42 -12 -24 -32 -31 12 -24 42 hvcurveto
            return
          </CharString>
          <CharString index="267">
            vlineto
            20 -4 29 -2 7 vhcurveto
            27 hlineto
            return
          </CharString>
          <CharString index="268">
            10 callsubr
            81 -371 return
          </CharString>
          <CharString index="269">
            25 hlineto
            32 7 -16 -20 -38 -29 -5 -45 -53 -51 9 8 -39 hvcurveto
            -127 vlineto
            -10 45 42 -7 56 142 callsubr
            return
          </CharString>
          <CharString index="270">
            505 rmoveto
            -17 -22 -3 -2 -8 hvcurveto
            54 322 125 callgsubr
            -45 -34 -8 -16 -26 hvcurveto
            15 -25 -35 8 -44 hhcurveto
            return
          </CharString>
          <CharString index="271">
            hlineto
            166 callsubr
          </CharString>
          <CharString index="272">
            388 169 rmoveto
            19 -4 17 -8 15 vhcurveto
            155 hlineto
            -226 -301 rlineto
            156 hlineto
            53 73 32 44 15 28 15 41 rlinecurve
            return
          </CharString>
          <CharString index="273">
            -51 callgsubr
            122 vmoveto
            -57 callsubr
            endchar
          </CharString>
          <CharString index="274">
            vlineto
            -23 -6 -16 -33 -21 -18 5 0 vhcurveto
            return
          </CharString>
          <CharString index="275">
            173 callgsubr
            -59 return
          </CharString>
          <CharString index="276">
            -403 -693 rlineto
            95 hlineto
            403 693 rlineto
            return
          </CharString>
          <CharString index="277">
            vlineto
            29 11 20 42 vhcurveto
            return
          </CharString>
          <CharString index="278" raw="1">
            f7660a07 381d0b  
          </CharString>
          <CharString index="279">
            vlineto
            -25 -9 -14 -35 -15 -13 99 callgsubr
            82 vlineto
            0 28 -6 26 95 63 34 115 vhcurveto
            return
          </CharString>
          <CharString index="280">
            rmoveto
            -36 -22 -15 -48 -50 -20 15 36 vhcurveto
            -139 -5 hlineto
            -113 73 -54 136 138 72 185 callsubr
            return
          </CharString>
          <CharString index="281">
            139 callgsubr
            endchar
          </CharString>
          <CharString index="282">
            254 callgsubr
            190 105 117 -535 -117 290 -63 -13 hlineto
            -123 -76 -44 -120 hvcurveto
            return
          </CharString>
          <CharString index="283">
            vvcurveto
            13 callgsubr
            endchar
          </CharString>
          <CharString index="284">
            -50 -34 vlineto
            196 callsubr
            return
          </CharString>
          <CharString index="285">
            rmoveto
            -59 callsubr
          </CharString>
          <CharString index="286">
            304 -7 callsubr
            return
          </CharString>
          <CharString index="287">
            84 callgsubr
            vhcurveto
            30 132 hlineto
            -5 callsubr
            return
          </CharString>
          <CharString index="288">
            324 rmoveto
            74 callsubr
            return
          </CharString>
          <CharString index="289">
            -5 callsubr
            150 vlineto
            29 return
          </CharString>
          <CharString index="290">
            vlineto
            103 -54 40 -121 vhcurveto
            return
          </CharString>
          <CharString index="291">
            rmoveto
            -11 callgsubr
            return
          </CharString>
          <CharString index="292">
            54 113 vhcurveto
            5 vlineto
            return
          </CharString>
          <CharString index="293">
            125 vlineto
            -6 -37 return
          </CharString>
          <CharString index="294">
            288 117 return
          </CharString>
          <CharString index="295">
            35 -16 21 -54 -32 -25 -4 -6 -23 93 callsubr
            8 24 27 5 32 hhcurveto
            153 54 -67 -105 hvcurveto
            -5 return
          </CharString>
          <CharString index="296">
            -105 146 693 rmoveto
            -131 -97 rlineto
            -165 vlineto
            109 80 rlineto
            -511 299 callgsubr
          </CharString>
          <CharString index="297">
            6 13 35 vhcurveto
            return
          </CharString>
          <CharString index="298">
            rmoveto
            -26 hlineto
            288 callgsubr
            88 vlineto
            23 6 16 96 callsubr
            -64 140 64 vlineto
            23 return
          </CharString>
          <CharString index="299">
            -105 -54 -65 -153 -34 -25 6 7 -24 93 callsubr
            -6 25 20 -4 35 hhcurveto
            54 16 21 35 hvcurveto
            return
          </CharString>
          <CharString index="300">
            -4 callgsubr
            -15 -36 -29 223 callgsubr
            -19 27 41 hvcurveto
            return
          </CharString>
          <CharString index="301">
            62 590 rmoveto
            -57 -118 57 -472 152 472 return
          </CharString>
          <CharString index="302">
            140 554 return
          </CharString>
          <CharString index="303">
            92 callsubr
            64 callgsubr
            32 7 -16 -20 -38 -29 -5 -45 return
          </CharString>
          <CharString index="304">
            235 callgsubr
            40 9 8 -1 0 vhcurveto
            endchar
          </CharString>
          <CharString index="305">
            7 vlineto
            106 -58 36 -128 vhcurveto
            -24 hlineto
            return
          </CharString>
          <CharString index="306">
            vlineto
            28 14 14 40 40 14 -14 -28 vhcurveto
            return
          </CharString>
          <CharString index="307">
            hlineto
            27 7 -8 -22 hvcurveto
            return
          </CharString>
          <CharString index="308">
            vlineto
            -75 33 rmoveto
            -10 callgsubr
            endchar
          </CharString>
          <CharString index="309">
            0 53 -10 65 vhcurveto
            117 vlineto
            -65 -53 -10 0 hvcurveto
            return
          </CharString>
          <CharString index="310">
            vlineto
            -103 41 -56 123 29 22 4 3 15 vhcurveto
            -59 return
          </CharString>
          <CharString index="311">
            0 -53 10 -65 vhcurveto
            -117 vlineto
            65 53 10 0 hvcurveto
            return
          </CharString>
          <CharString index="312">
            -4 callgsubr
            -5 callsubr
            return
          </CharString>
          <CharString index="313">
            hhcurveto
            33 29 3 6 21 hvcurveto
            -95 return
          </CharString>
          <CharString index="314">
            rmoveto
            108 74 -108 vlineto
            return
          </CharString>
          <CharString index="315">
            -117 277 return
          </CharString>
          <CharString index="316">
            61 145 rmoveto
            -46 -278 rlineto
            80 hlineto
            31 41 73 114 66 vvcurveto
            36 -19 21 -44 vhcurveto
            return
          </CharString>
          <CharString index="317">
            -117 270 return
          </CharString>
          <CharString index="318">
            118 vlineto
            -10 -48 -40 -4 -71 hhcurveto
            274 callgsubr
            return
          </CharString>
          <CharString index="319">
            30 callsubr
            -133 -131 hlineto
            return
          </CharString>
          <CharString index="320">
            -127 61 -62 149 57 42 10 10 30 vhcurveto
            return
          </CharString>
          <CharString index="321">
            hlineto
            -81 callgsubr
            return
          </CharString>
          <CharString index="322">
            -23 -6 9 19 hvcurveto
            2 vlineto
            19 7 7 22 vhcurveto
            return
          </CharString>
          <CharString index="323">
            181 57 55 123 return
          </CharString>
          <CharString index="324">
            -55 -25 hlineto
            -128 -58 -45 -81 hvcurveto
            -12 vlineto
            -110 70 -18 112 vhcurveto
            20 hlineto
            return
          </CharString>
          <CharString index="325">
            -47 callgsubr
            -113 vlineto
            -103 46 -60 123 217 callgsubr
            vhcurveto
            return
          </CharString>
          <CharString index="326">
            -79 vlineto
            -103 35 -54 133 133 35 54 103 vhcurveto
            79 vlineto
            103 -35 54 -133 return
          </CharString>
          <CharString index="327">
            263 callsubr
            -172 hlineto
            -35 -10 -19 -55 return
          </CharString>
          <CharString index="328">
            120 74 vlineto
            endchar
          </CharString>
          <CharString index="329">
            -114 59 -64 return
          </CharString>
          <CharString index="330">
            -63 -6 vlineto
            -125 -61 -63 -113 hvcurveto
            -137 vlineto
            -121 75 -62 140 return
          </CharString>
          <CharString index="331">
            8 16 22 hvcurveto
            83 hlineto
            -161 -125 142 -25 66 57 23 20 24 21 return
          </CharString>
          <CharString index="332">
            116 693 rmoveto
            -76 -54 rlineto
            -105 vlineto
            76 54 rlineto
            -344 94 449 vlineto
            return
          </CharString>
          <CharString index="333">
            315 rmoveto
            42 11 14 0 vhcurveto
            53 120 return
          </CharString>
          <CharString index="334">
            -30 -40 -61 -93 -58 vvcurveto
            -36 17 -21 44 vhcurveto
            return
          </CharString>
          <CharString index="335">
            256 callsubr
            -103 43 -55 127 return
          </CharString>
          <CharString index="336">
            141 416 vlineto
            return
          </CharString>
          <CharString index="337">
            0 -11 -17 -30 vvcurveto
            return
          </CharString>
          <CharString index="338">
            -66 vlineto
            127 callgsubr
            return
          </CharString>
          <CharString index="339">
            rmoveto
            -59 -17 66 callsubr
            58 17 33 42 42 -16 33 -58 hvcurveto
            return
          </CharString>
          <CharString index="340">
            -66 hlineto
            127 callgsubr
            return
          </CharString>
          <CharString index="341">
            rmoveto
            -130 414 -4 callgsubr
            return
          </CharString>
          <CharString index="342">
            vlineto
            76 36 38 77 hvcurveto
            return
          </CharString>
          <CharString index="343">
            vvcurveto
            -64 vlineto
            -103 43 -46 113 22 23 5 7 15 vhcurveto
            -65 131 return
          </CharString>
          <CharString index="344">
            hlineto
            243 callsubr
            return
          </CharString>
          <CharString index="345">
            rlinecurve
            186 callsubr
            -34 -5 -50 hhcurveto
            -56 -29 12 47 hvcurveto
            endchar
          </CharString>
          <CharString index="346">
            -63 -227 hlineto
            -47 callgsubr
            return
          </CharString>
          <CharString index="347">
            hhcurveto
            -174 hlineto
            -47 callgsubr
            return
          </CharString>
          <CharString index="348">
            141 141 return
          </CharString>
          <CharString index="349">
            -117 321 -59 -47 hlineto
            -133 -63 -39 -120 hvcurveto
            190 return
          </CharString>
          <CharString index="350">
            -41 131 rlineto
            76 -24 -46 23 -52 hhcurveto
            -11 -11 -1 -2 -12 hvcurveto
            return
          </CharString>
          <CharString index="351">
            499 184 callsubr
            -36 -29 -5 -10 -23 hvcurveto
            return
          </CharString>
          <CharString index="352">
            vlineto
            153 callgsubr
            -122 vlineto
            return
          </CharString>
          <CharString index="353">
            hhcurveto
            -46 -31 9 35 hvcurveto
            33 vlineto
            254 callgsubr
            return
          </CharString>
          <CharString index="354">
            499 rmoveto
            -17 callgsubr
            return
          </CharString>
          <CharString index="355">
            -114 41 397 rmoveto
            -130 236 -4 callgsubr
            endchar
          </CharString>
          <CharString index="356">
            -26 -18 -18 -26 -26 18 -18 26 hvcurveto
            return
          </CharString>
          <CharString index="357">
            -63 -6 hlineto
            -98 -59 -39 -71 -20 hvcurveto
            return
          </CharString>
          <CharString index="358">
            hhcurveto
            98 callgsubr
            hvcurveto
            return
          </CharString>
          <CharString index="359">
            276 callsubr
            -103 return
          </CharString>
          <CharString index="360">
            34 115 vhcurveto
            25 vlineto
            19 return
          </CharString>
          <CharString index="361">
            -309 rlineto
            173 hlineto
            return
          </CharString>
          <CharString index="362">
            vlineto
            34 10 13 0 vhcurveto
            return
          </CharString>
          <CharString index="363">
            -117 77 -282 hlineto
            return
          </CharString>
          <CharString index="364">
            -117 75 -288 return
          </CharString>
          <CharString index="365">
            -123 -52 -70 -103 return
          </CharString>
          <CharString index="366">
            117 -721 298 callgsubr
            return
          </CharString>
          <CharString index="367">
            380 vlineto
            153 callgsubr
            return
          </CharString>
          <CharString index="368">
            -151 315 671 rmoveto
            -355 -117 355 hlineto
            return
          </CharString>
          <CharString index="369">
            -63 -6 hlineto
            -125 -61 -63 -113 hvcurveto
            -137 vlineto
            return
          </CharString>
          <CharString index="370">
            215 callgsubr
            -24 return
          </CharString>
          <CharString index="371">
            rmoveto
            -20 -8 -18 -37 -37 -8 20 20 vhcurveto
            149 vlineto
            return
          </CharString>
          <CharString index="372">
            -61 callgsubr
            -23 -4 -15 -11 -9 vhcurveto
            return
          </CharString>
          <CharString index="373">
            rmoveto
            138 callgsubr
            return
          </CharString>
          <CharString index="374">
            hhcurveto
            -236 -118 63 hlineto
            -12 -16 -7 -19 -25 vvcurveto
            return
          </CharString>
          <CharString index="375">
            vlineto
            88 -54 38 -71 return
          </CharString>
          <CharString index="376">
            rlinecurve
            2 hlineto
            -8 -56 return
          </CharString>
          <CharString index="377">
            rlineto
            153 hlineto
            return
          </CharString>
          <CharString index="378">
            rmoveto
            -64 callgsubr
            return
          </CharString>
          <CharString index="379">
            hlineto
            -26 -183 rlineto
            132 hlineto
            26 183 rlineto
            return
          </CharString>
          <CharString index="380">
            182 callsubr
            17 20 42 return
          </CharString>
          <CharString index="381">
            vlineto
            -81 callgsubr
            return
          </CharString>
          <CharString index="382">
            3 callsubr
            endchar
          </CharString>
          <CharString index="383">
            -56 -39 -103 hvcurveto
            -10 vlineto
            return
          </CharString>
          <CharString index="384">
            vlineto
            27 -6 20 0 vhcurveto
            return
          </CharString>
          <CharString index="385">
            -117 288 return
          </CharString>
          <CharString index="386">
            -103 callgsubr
            -465 -117 243 return
          </CharString>
          <CharString index="387" raw="1">
            fb20fba9 07f7a91d 0b 
          </CharString>
          <CharString index="388">
            -287 117 711 -117 -288 -54 return
          </CharString>
          <CharString index="389">
            25 26 -18 19 -26 -25 -19 -19 -26 -25 19 return
          </CharString>
          <CharString index="390">
            140 671 -140 hlineto
            return
          </CharString>
          <CharString index="391">
            rmoveto
            -23 -14 -9 -25 vhcurveto
            -40 return
          </CharString>
          <CharString index="392">
            vhcurveto
            -5 -26 -27 -4 -31 hhcurveto
            return
          </CharString>
          <CharString index="393">
            hlineto
            -1 -8 0 -9 -9 vvcurveto
            return
          </CharString>
          <CharString index="394">
            -103 66 -76 143 return
          </CharString>
          <CharString index="395">
            -117 78 -296 return
          </CharString>
          <CharString index="396">
            -53 -18 23 46 hvcurveto
            return
          </CharString>
          <CharString index="397">
            -12 -10 2 2 return
          </CharString>
          <CharString index="398">
            35 169 rmoveto
            return
          </CharString>
          <CharString index="399">
            93 -67 -49 callsubr
            return
          </CharString>
          <CharString index="400">
            120 22 rlineto
            98 vlineto
            -120 -22 rlineto
            return
          </CharString>
          <CharString index="401">
            hvcurveto
            -179 vlineto
            -103 50 -60 118 48 return
          </CharString>
          <CharString index="402">
            vlineto
            20 -4 29 -2 7 vhcurveto
            80 hlineto
            -3 return
          </CharString>
          <CharString index="403">
            119 callsubr
            -4 vlineto
            0 vlineto
            return
          </CharString>
          <CharString index="404">
            -66 20 -46 44 -24 vhcurveto
            -65 -14 -4 -63 return
          </CharString>
          <CharString index="405">
            vlineto
            0 24 5 18 35 7 -17 -25 vhcurveto
            return
          </CharString>
          <CharString index="406">
            vhcurveto
            288 vlineto
            return
          </CharString>
        <CharString name=".notdef">
          330 160 hmoveto
          436 701 -436 hlineto
          81 -76 rmoveto
          275 -549 -275 hlineto
          endchar
        </CharString>
        <CharString name="A">
          63 341 hmoveto
          143 -43 callgsubr
          -22 127 174 callsubr
        </CharString>
        <CharString name="AE">
          299 355 287 rmoveto
          -108 hlineto
          108 302 rlineto
          -589 vmoveto
          341 130 -201 156 174 130 -174 147 201 130 -430 hlineto
          -266 -693 rlineto
          145 hlineto
          57 160 270 callsubr
          endchar
        </CharString>
        <CharString name="Aacute">
          63 341 hmoveto
          143 -43 callgsubr
          -70 687 rmoveto
          -44 -115 rlineto
          79 hlineto
          75 115 rlineto
          -62 -560 174 callsubr
        </CharString>
        <CharString name="Abreve">
          63 341 hmoveto
          143 -43 callgsubr
          -22 127 139 callgsubr
          43 292 59 callgsubr
          endchar
        </CharString>
        <CharString name="Acircumflex">
          63 341 hmoveto
          143 -43 callgsubr
          -22 127 139 callgsubr
          48 177 -36 callsubr
        </CharString>
        <CharString name="Adieresis">
          63 157 735 rmoveto
          -85 callsubr
          171 hmoveto
          -85 callsubr
          13 -735 rmoveto
          143 -43 callgsubr
          -22 127 174 callsubr
        </CharString>
        <CharString name="Agrave">
          63 341 hmoveto
          143 -43 callgsubr
          -184 687 rmoveto
          75 -115 rlineto
          79 hlineto
          -44 115 rlineto
          52 -560 174 callsubr
        </CharString>
        <CharString name="Amacron">
          63 341 hmoveto
          143 -43 callgsubr
          -203 668 rmoveto
          -77 267 77 vlineto
          -86 -541 174 callsubr
        </CharString>
        <CharString name="Aogonek">
          63 432 hmoveto
          -15 callgsubr
          -1 -43 callgsubr
          29 -160 rlineto
          -51 287 174 callsubr
        </CharString>
        <CharString name="Aring">
          63 341 hmoveto
          143 -43 callgsubr
          -70 600 rmoveto
          -17 -11 11 18 16 11 12 17 17 11 -12 -16 -18 -11 -11 -17 hvcurveto
          -51 vmoveto
          53 28 36 44 44 -28 35 -53 -52 -29 -35 -44 -44 29 -36 52 hvcurveto
          48 -422 174 callsubr
        </CharString>
        <CharString name="Atilde">
          63 341 hmoveto
          143 -43 callgsubr
          -22 127 139 callgsubr
          64 289 -55 callsubr
        </CharString>
        <CharString name="B">
          67 263 283 rmoveto
          30 17 -11 -32 hvcurveto
          -71 vlineto
          -32 -17 -11 -30 vhcurveto
          -68 157 hlineto
          62 284 rmoveto
          30 17 -11 -32 hvcurveto
          -65 vlineto
          -32 -17 -11 -30 vhcurveto
          -62 151 hlineto
          -150 -567 rmoveto
          243 hlineto
          106 64 43 116 hvcurveto
          71 vlineto
          57 -18 49 -59 14 vhcurveto
          54 17 17 47 55 vvcurveto
          65 vlineto
          116 -64 43 -106 vhcurveto
          -237 hlineto
          endchar
        </CharString>
        <CharString name="C">
          -14 35 163 rmoveto
          -104 68 -64 153 51 51 7 8 29 vhcurveto
          6 callgsubr
          endchar
        </CharString>
        <CharString name="CR">
          -426 endchar
        </CharString>
        <CharString name="Cacute">
          -14 35 163 rmoveto
          -104 68 -64 153 51 51 7 8 29 vhcurveto
          6 callgsubr
          217 318 -50 callsubr
        </CharString>
        <CharString name="Ccaron">
          -14 35 163 rmoveto
          -104 68 -64 153 51 51 7 8 29 vhcurveto
          6 callgsubr
          249 318 -54 callsubr
        </CharString>
        <CharString name="Ccedilla">
          -14 35 163 rmoveto
          -90 51 -60 113 -15 vhcurveto
          -16 -75 67 callsubr
          8 34 48 1 48 6 28 8 rlinecurve
          6 callgsubr
          endchar
        </CharString>
        <CharString name="D">
          67 44 callsubr
          252 vlineto
          115 46 61 102 hvcurveto
          376 vlineto
          103 -64 51 -106 vhcurveto
          20 -518 rmoveto
          -24 -6 -22 -35 vhcurveto
          -72 441 72 hlineto
          35 6 -17 -20 hvcurveto
          endchar
        </CharString>
        <CharString name="Dcaron">
          67 308 175 rmoveto
          -24 -6 -22 -35 vhcurveto
          -72 441 72 hlineto
          35 6 -17 -20 hvcurveto
          -263 160 rmoveto
          -693 252 vlineto
          115 46 61 102 hvcurveto
          376 vlineto
          103 -64 51 -106 vhcurveto
          -13 154 -54 callsubr
        </CharString>
        <CharString name="Dcroat">
          89 callgsubr
        </CharString>
        <CharString name="E">
          -40 callsubr
          endchar
        </CharString>
        <CharString name="Eacute">
          -40 callsubr
          -175 154 -50 callsubr
        </CharString>
        <CharString name="Ecaron">
          -40 callsubr
          -140 154 -54 callsubr
        </CharString>
        <CharString name="Ecircumflex">
          -40 callsubr
          -142 39 -36 callsubr
        </CharString>
        <CharString name="Edieresis">
          -40 callsubr
          -260 42 rmoveto
          -85 callsubr
          171 hmoveto
          -85 callsubr
          endchar
        </CharString>
        <CharString name="Edotaccent">
          -40 callsubr
          -175 42 rmoveto
          -85 callsubr
          endchar
        </CharString>
        <CharString name="Egrave">
          -40 callsubr
          -288 154 42 callsubr
        </CharString>
        <CharString name="Emacron">
          -40 callsubr
          -314 135 121 callgsubr
        </CharString>
        <CharString name="Eogonek">
          154 callgsubr
          298 vlineto
          -15 callgsubr
          130 -201 156 174 130 -174 147 201 -4 callgsubr
          endchar
        </CharString>
        <CharString name="Eth">
          89 callgsubr
        </CharString>
        <CharString name="Euro">
          46 72 163 rmoveto
          -104 68 -64 153 51 51 7 8 29 vhcurveto
          135 vlineto
          -10 -33 -48 -5 -46 hhcurveto
          -56 -17 19 29 hvcurveto
          53 100 98 -100 40 100 98 -100 47 vlineto
          30 16 19 57 45 46 -7 -10 33 vhcurveto
          138 vlineto
          8 -30 -47 6 -49 hhcurveto
          -153 -70 -66 -103 hvcurveto
          -62 -52 -98 52 -40 -52 -98 52 vlineto
          endchar
        </CharString>
        <CharString name="F">
          -23 44 callsubr
          152 257 176 134 -176 171 191 131 vlineto
          endchar
        </CharString>
        <CharString name="G">
          5 callsubr
          endchar
        </CharString>
        <CharString name="Gbreve">
          5 callsubr
          259 321 59 callgsubr
          endchar
        </CharString>
        <CharString name="H">
          106 335 693 rmoveto
          -285 -138 285 -152 -693 152 274 138 -274 299 callgsubr
        </CharString>
        <CharString name="I">
          83 callgsubr
          endchar
        </CharString>
        <CharString name="Iacute">
          83 callgsubr
          -75 154 -50 callsubr
        </CharString>
        <CharString name="Icircumflex">
          83 callgsubr
          -36 39 -36 callsubr
        </CharString>
        <CharString name="Idieresis">
          83 callgsubr
          -162 42 rmoveto
          -85 callsubr
          171 hmoveto
          -85 callsubr
          endchar
        </CharString>
        <CharString name="Idotaccent">
          83 callgsubr
          -78 42 rmoveto
          -85 callsubr
          endchar
        </CharString>
        <CharString name="Igrave">
          83 callgsubr
          -187 154 42 callsubr
        </CharString>
        <CharString name="Imacron">
          83 callgsubr
          -206 135 121 callgsubr
        </CharString>
        <CharString name="Iogonek">
          144 callgsubr
          99 vlineto
          -15 callgsubr
          693 vlineto
          endchar
        </CharString>
        <CharString name="J">
          -179 50 693 rmoveto
          -486 vlineto
          -94 -15 -63 -28 -96 vhcurveto
          -30 -103 rlineto
          159 hlineto
          31 103 rlineto
          29 96 6 50 108 vvcurveto
          485 vlineto
          endchar
        </CharString>
        <CharString name="K">
          133 callsubr
          endchar
        </CharString>
        <CharString name="L">
          174 callgsubr
          endchar
        </CharString>
        <CharString name="Lacute">
          174 callgsubr
          -75 154 -50 callsubr
        </CharString>
        <CharString name="Lcaron">
          -39 257 747 rmoveto
          -25 -155 rlineto
          48 hlineto
          18 23 40 63 37 vvcurveto
          20 -10 12 -25 vhcurveto
          -258 -54 rmoveto
          -693 257 callgsubr
          567 vlineto
          endchar
        </CharString>
        <CharString name="Lslash">
          -37 55 693 rmoveto
          -329 vlineto
          -55 -23 rlineto
          -100 vlineto
          55 23 rlineto
          -264 257 callgsubr
          200 vlineto
          86 35 rlineto
          100 vlineto
          -86 -35 rlineto
          267 vlineto
          endchar
        </CharString>
        <CharString name="M">
          223 449 693 rmoveto
          -125 -354 -125 354 rlineto
          -154 -693 144 241 hlineto
          112 -19 93 0 vhcurveto
          96 -270 rlineto
          116 hlineto
          96 270 rlineto
          0 -19 -93 -112 vvcurveto
          -241 145 693 vlineto
          endchar
        </CharString>
        <CharString name="N">
          -51 callsubr
          endchar
        </CharString>
        <CharString name="NULL">
          -426 endchar
        </CharString>
        <CharString name="Nacute">
          -51 callsubr
          62 847 -50 callsubr
        </CharString>
        <CharString name="Ncaron">
          -51 callsubr
          105 847 -54 callsubr
        </CharString>
        <CharString name="Ntilde">
          -51 callsubr
          146 844 -55 callsubr
        </CharString>
        <CharString name="O">
          -71 callgsubr
          endchar
        </CharString>
        <CharString name="OE">
          286 246 129 rmoveto
          -35 -6 22 24 hvcurveto
          358 vlineto
          20 6 17 35 vhcurveto
          88 -441 hlineto
          -118 -129 rmoveto
          469 130 -201 156 174 130 -174 147 201 130 -460 hlineto
          -106 -64 -51 -103 hvcurveto
          -376 vlineto
          -102 46 -61 115 vhcurveto
          endchar
        </CharString>
        <CharString name="Oacute">
          -71 callgsubr
          -47 331 -50 callsubr
        </CharString>
        <CharString name="Ocircumflex">
          63 304 177 rmoveto
          -31 -18 -19 -42 -42 -17 20 30 vhcurveto
          339 vlineto
          31 17 19 42 42 18 -20 -30 vhcurveto
          -269 -347 rmoveto
          -106 68 187 callgsubr
          69 73 106 vhcurveto
          355 vlineto
          106 -69 73 -141 -141 -68 -73 -106 vhcurveto
          252 208 -36 callsubr
        </CharString>
        <CharString name="Odieresis">
          -71 callgsubr
          -145 219 rmoveto
          -85 callsubr
          171 hmoveto
          -85 callsubr
          endchar
        </CharString>
        <CharString name="Ograve">
          -71 callgsubr
          -176 331 42 callsubr
        </CharString>
        <CharString name="Ohungarumlaut">
          -71 callgsubr
          8 331 69 callsubr
        </CharString>
        <CharString name="Omacron">
          -71 callgsubr
          -192 312 121 callgsubr
        </CharString>
        <CharString name="Oslash">
          63 291 callsubr
          -39 9 -35 19 -28 vhcurveto
          -33 -67 rlineto
          90 hlineto
          6 13 rlineto
          -15 32 39 -8 47 hhcurveto
          141 69 73 106 hvcurveto
          355 vlineto
          39 -9 34 -19 28 vhcurveto
          33 68 rlineto
          -90 hlineto
          -7 -13 rlineto
          15 -31 -39 8 -48 hhcurveto
          -141 -68 -73 -106 hvcurveto
          150 -8 rmoveto
          31 17 19 42 27 16 -8 -14 9 vhcurveto
          -111 -227 rlineto
          59 -190 rmoveto
          -26 -17 8 13 -8 hvcurveto
          111 228 rlineto
          -199 vlineto
          -31 -18 -19 -42 vhcurveto
          endchar
        </CharString>
        <CharString name="Otilde">
          -71 callgsubr
          5 328 -55 callsubr
        </CharString>
        <CharString name="P">
          44 44 callsubr
          151 200 75 vlineto
          106 68 51 103 hvcurveto
          185 vlineto
          103 -68 51 -106 vhcurveto
          24 -321 rmoveto
          -30 -13 -12 -30 vhcurveto
          -56 233 56 hlineto
          30 13 -12 -30 hvcurveto
          endchar
        </CharString>
        <CharString name="Q">
          63 304 177 rmoveto
          -31 -18 -19 -42 -42 -17 20 30 vhcurveto
          339 vlineto
          31 17 19 42 42 18 -20 -30 vhcurveto
          -269 -347 rmoveto
          -106 68 -73 141 vhcurveto
          4 5 0 4 hhcurveto
          74 -77 rlineto
          177 hlineto
          -116 119 rlineto
          42 32 20 47 58 vvcurveto
          355 vlineto
          106 -69 73 -141 -141 -68 -73 -106 vhcurveto
          endchar
        </CharString>
        <CharString name="R">
          56 -33 callgsubr
          endchar
        </CharString>
        <CharString name="Racute">
          56 44 callsubr
          150 250 19 vlineto
          93 -250 rlineto
          165 hlineto
          -109 262 rlineto
          58 21 24 50 79 vvcurveto
          128 vlineto
          103 -68 50 -106 vhcurveto
          -42 154 rmoveto
          -44 -115 rlineto
          79 hlineto
          75 115 rlineto
          -44 -433 rmoveto
          -34 -11 -11 -30 vhcurveto
          -59 196 59 hlineto
          26 15 -7 -31 hvcurveto
          endchar
        </CharString>
        <CharString name="Rcaron">
          56 -33 callgsubr
          -29 320 -54 callsubr
        </CharString>
        <CharString name="S">
          -77 callsubr
          endchar
        </CharString>
        <CharString name="Sacute">
          -77 callsubr
          206 316 -50 callsubr
        </CharString>
        <CharString name="Scaron">
          -77 callsubr
          235 316 -54 callsubr
        </CharString>
        <CharString name="T">
          96 callgsubr
          endchar
        </CharString>
        <CharString name="Tcaron">
          96 callgsubr
          -162 154 -54 callsubr
        </CharString>
        <CharString name="Thorn">
          27 256 462 rmoveto
          30 13 -12 -30 hvcurveto
          -146 vlineto
          -30 -13 -12 -30 vhcurveto
          -57 230 hlineto
          -144 231 rmoveto
          -693 144 104 70 vlineto
          106 68 51 103 hvcurveto
          178 vlineto
          103 -68 51 -106 vhcurveto
          -70 103 hlineto
          endchar
        </CharString>
        <CharString name="U">
          69 305 693 -50 callgsubr
          endchar
        </CharString>
        <CharString name="Uacute">
          69 305 693 -50 callgsubr
          -204 154 -50 callsubr
        </CharString>
        <CharString name="Ucircumflex">
          69 305 693 -50 callgsubr
          -167 39 -36 callsubr
        </CharString>
        <CharString name="Udieresis">
          69 305 693 -50 callgsubr
          -294 42 rmoveto
          -85 callsubr
          171 hmoveto
          -85 callsubr
          endchar
        </CharString>
        <CharString name="Ugrave">
          69 305 693 -50 callgsubr
          -321 154 42 callsubr
        </CharString>
        <CharString name="Uhungarumlaut">
          69 312 847 rmoveto
          142 callgsubr
          -220 hmoveto
          142 callgsubr
          13 -154 -50 callgsubr
          endchar
        </CharString>
        <CharString name="Umacron">
          69 305 693 -50 callgsubr
          -342 135 121 callgsubr
        </CharString>
        <CharString name="Uogonek">
          69 305 693 rmoveto
          -516 vlineto
          -31 -16 -19 -42 -42 -15 20 30 vhcurveto
          516 -150 -524 vlineto
          -106 66 -73 141 11 10 0 1 10 vhcurveto
          -27 -28 -19 -36 -37 vvcurveto
          -50 34 -30 61 vhcurveto
          24 69 -11 hlineto
          -19 -10 11 25 35 16 33 20 23 hvcurveto
          73 27 35 59 77 vvcurveto
          524 vlineto
          endchar
        </CharString>
        <CharString name="Uring">
          69 305 693 -50 callgsubr
          -208 16 18 callgsubr
        </CharString>
        <CharString name="V">
          59 324 693 rmoveto
          -46 -295 rlineto
          -14 -89 -19 -179 0 vvcurveto
          0 -20 178 -16 92 vhcurveto
          -51 293 rlineto
          -153 hlineto
          134 -693 rlineto
          209 hlineto
          132 693 rlineto
          endchar
        </CharString>
        <CharString name="W">
          167 459 693 rmoveto
          -33 -228 rlineto
          -12 -84 -5 -100 0 vvcurveto
          0 -11 100 -10 84 vhcurveto
          -26 228 rlineto
          -127 hlineto
          -28 -228 rlineto
          -11 -93 -11 -98 0 vvcurveto
          0 -4 98 -13 93 vhcurveto
          -32 228 rlineto
          -131 hlineto
          89 -693 128 callsubr
          42 274 rlineto
          12 80 8 111 0 vvcurveto
          0 10 -111 12 -80 vhcurveto
          41 -274 rlineto
          134 hlineto
          92 693 rlineto
          endchar
        </CharString>
        <CharString name="X">
          42 301 693 rmoveto
          -65 -191 -69 191 rlineto
          -162 hlineto
          148 -348 -148 -345 rlineto
          163 hlineto
          68 189 64 -189 rlineto
          163 hlineto
          -149 345 149 348 rlineto
          endchar
        </CharString>
        <CharString name="Y">
          56 332 693 56 callsubr
          endchar
        </CharString>
        <CharString name="Yacute">
          56 332 693 56 callsubr
          -238 155 -50 callsubr
        </CharString>
        <CharString name="Ydieresis">
          56 158 735 rmoveto
          -85 callsubr
          171 hmoveto
          -85 callsubr
          3 -42 56 callsubr
          endchar
        </CharString>
        <CharString name="Z">
          35 callgsubr
          endchar
        </CharString>
        <CharString name="Zacute">
          35 callgsubr
          -187 154 -50 callsubr
        </CharString>
        <CharString name="Zcaron">
          35 callgsubr
          -153 154 -54 callsubr
        </CharString>
        <CharString name="Zdotaccent">
          35 callgsubr
          -186 42 rmoveto
          -85 callsubr
          endchar
        </CharString>
        <CharString name="a">
          -92 callgsubr
          endchar
        </CharString>
        <CharString name="aacute">
          -92 callgsubr
          -42 506 -50 callsubr
        </CharString>
        <CharString name="abreve">
          -92 callgsubr
          3 506 59 callgsubr
          endchar
        </CharString>
        <CharString name="acircumflex">
          -92 callgsubr
          3 391 -36 callsubr
        </CharString>
        <CharString name="acute">
          -76 142 747 -50 callsubr
        </CharString>
        <CharString name="adieresis">
          -92 callgsubr
          -127 394 rmoveto
          -85 callsubr
          171 hmoveto
          -85 callsubr
          endchar
        </CharString>
        <CharString name="ae">
          229 200 595 rmoveto
          -71 -59 -14 -7 -20 hvcurveto
          -132 vlineto
          7 18 58 15 61 hhcurveto
          53 11 -18 -20 hvcurveto
          1 -57 -108 -34 rlineto
          -85 -26 -35 -42 -90 vvcurveto
          -35 vlineto
          -100 56 -46 95 66 47 9 20 32 vhcurveto
          -20 33 45 -11 61 hhcurveto
          85 32 10 9 33 hvcurveto
          132 vlineto
          -6 -20 -52 -14 -63 hhcurveto
          -53 -26 11 44 hvcurveto
          56 228 203 vlineto
          98 -52 63 -131 -52 -40 -10 -18 -30 vhcurveto
          15 -29 -39 8 -50 hhcurveto
          55 -474 rmoveto
          -9 -18 -21 -3 -14 hhcurveto
          -19 -16 9 25 hvcurveto
          28 vlineto
          38 5 12 34 9 vhcurveto
          49 13 rlineto
          229 108 rmoveto
          -90 86 hlineto
          25 19 13 27 27 17 -13 -25 vhcurveto
          endchar
        </CharString>
        <CharString name="agrave">
          -92 callgsubr
          -154 506 42 callsubr
        </CharString>
        <CharString name="amacron">
          -92 callgsubr
          -163 487 121 callgsubr
        </CharString>
        <CharString name="ampersand">
          78 252 126 rmoveto
          -41 -8 21 30 hvcurveto
          71 vlineto
          33 14 15 37 vhcurveto
          49 -119 hlineto
          -31 -10 -20 -41 vhcurveto
          -197 346 rmoveto
          -59 29 -35 39 -13 vhcurveto
          -44 -13 -26 -34 -60 vvcurveto
          -85 vlineto
          -106 58 187 callgsubr
          54 73 106 vhcurveto
          123 50 128 -50 66 -144 -66 -49 vlineto
          -38 -11 15 36 hvcurveto
          39 vlineto
          30 15 18 65 52 37 -4 -13 34 vhcurveto
          140 vlineto
          9 -27 -42 5 -58 hhcurveto
          -156 -70 -65 -102 hvcurveto
          endchar
        </CharString>
        <CharString name="aogonek">
          11 50 443 rmoveto
          7 18 59 14 60 hhcurveto
          51 14 -14 -33 1 hvcurveto
          -55 vlineto
          -109 -28 rlineto
          -87 -24 -38 -43 -90 vvcurveto
          -34 vlineto
          -101 41 -44 94 57 31 23 22 14 vhcurveto
          -43 87 vlineto
          -15 callgsubr
          1 416 hlineto
          115 -48 64 -146 -71 -56 -10 -9 -26 vhcurveto
          202 -456 rmoveto
          -7 -13 -20 -4 -17 hhcurveto
          -26 -9 13 21 hvcurveto
          28 vlineto
          38 5 11 34 9 vhcurveto
          46 12 rlineto
          endchar
        </CharString>
        <CharString name="apostrophemod">
          -221 67 733 149 callsubr
        </CharString>
        <CharString name="approxequal">
          199 457 315 28 callgsubr
          -134 230 28 callgsubr
          endchar
        </CharString>
        <CharString name="aring">
          -92 callgsubr
          -43 368 18 callgsubr
        </CharString>
        <CharString name="asciicircum">
          15 290 400 rmoveto
          149 hlineto
          -135 337 rlineto
          -168 hlineto
          -136 -337 rlineto
          149 hlineto
          71 233 rlineto
          endchar
        </CharString>
        <CharString name="asciitilde">
          199 457 442 28 callgsubr
          endchar
        </CharString>
        <CharString name="asterisk">
          130 207 838 rmoveto
          -89 vlineto
          -26 3 -22 4 -17 vhcurveto
          -16 9 -19 10 -25 8 -85 27 rcurveline
          -43 -133 84 -27 25 -8 22 -4 19 -2 rlinecurve
          -14 -12 -15 -16 -16 -21 -52 -72 rcurveline
          113 -82 52 71 15 21 11 19 7 17 rlinecurve
          7 -17 10 -19 15 -21 53 -71 rcurveline
          113 82 -52 71 -16 21 -15 17 -14 12 rlinecurve
          19 1 22 4 25 8 84 28 rcurveline
          -43 133 -84 -28 -25 -8 -20 -10 -16 -9 rlinecurve
          4 18 3 22 26 vvcurveto
          89 vlineto
          endchar
        </CharString>
        <CharString name="at">
          491 464 -139 rmoveto
          93 117 -92 hlineto
          -263 -17 128 179 178 14 131 266 268 10 -126 -181 -135 -19 -36 -55 -48 -18 19 47 hvcurveto
          232 vlineto
          82 -46 36 -104 -54 -47 -11 -6 -20 vhcurveto
          -97 vlineto
          7 23 43 12 55 hhcurveto
          33 5 -11 -18 hvcurveto
          -59 vlineto
          -95 -35 rlineto
          -57 -22 -23 -36 -62 vvcurveto
          -28 vlineto
          -71 32 -42 78 45 28 9 8 17 vhcurveto
          -43 28 53 -20 62 hhcurveto
          127 81 66 214 249 -69 174 -333 -327 -79 -179 -246 -247 75 -177 330 hvcurveto
          27 293 rmoveto
          0 -20 -8 -15 -25 -3 6 15 vhcurveto
          31 vlineto
          24 5 8 21 8 vhcurveto
          37 13 rlineto
          endchar
        </CharString>
        <CharString name="atilde">
          -92 callgsubr
          27 503 -55 callsubr
        </CharString>
        <CharString name="b">
          37 45 747 rmoveto
          -747 230 vlineto
          251 callgsubr
          -55 38 -71 -49 -37 -8 -7 -20 vhcurveto
          169 vlineto
          79 -576 284 callsubr
          304 hlineto
          6 10 20 5 20 hhcurveto
          19 10 -8 -16 hvcurveto
          endchar
        </CharString>
        <CharString name="backslash">
          61 39 869 rmoveto
          270 -1052 rlineto
          140 hlineto
          -271 1052 rlineto
          endchar
        </CharString>
        <CharString name="bar">
          61 880 rmoveto
          -1070 100 1070 vlineto
          endchar
        </CharString>
        <CharString name="braceleft">
          -14 258 684 rmoveto
          24 12 15 27 vhcurveto
          45 129 -56 hlineto
          -102 -56 -72 -103 hvcurveto
          -217 vlineto
          -40 -26 -19 -43 vhcurveto
          -5 -129 5 hlineto
          43 26 -19 -40 hvcurveto
          -218 vlineto
          -103 56 -72 102 vhcurveto
          56 129 -45 hlineto
          -27 -12 15 24 hvcurveto
          198 vlineto
          86 -18 51 -75 14 vhcurveto
          75 16 18 58 86 vvcurveto
          endchar
        </CharString>
        <CharString name="braceright">
          -17 347 401 rmoveto
          -43 -26 19 40 hvcurveto
          217 vlineto
          103 -56 72 -102 vhcurveto
          -56 -129 45 hlineto
          27 12 -15 -24 hvcurveto
          -187 vlineto
          -86 18 -58 75 -16 vhcurveto
          -75 -14 -18 -51 -86 vvcurveto
          -198 vlineto
          -24 -12 -15 -27 vhcurveto
          -45 -129 56 hlineto
          102 56 72 103 hvcurveto
          218 vlineto
          40 26 19 43 vhcurveto
          5 129 hlineto
          endchar
        </CharString>
        <CharString name="bracketleft">
          -52 88 869 rmoveto
          -1052 241 118 -120 817 120 117 vlineto
          endchar
        </CharString>
        <CharString name="bracketright">
          -52 44 869 rmoveto
          -117 120 -817 -120 -118 241 1052 vlineto
          endchar
        </CharString>
        <CharString name="breve">
          -76 218 747 59 callgsubr
          endchar
        </CharString>
        <CharString name="brokenbar">
          -201 61 880 rmoveto
          -390 100 390 vlineto
          -100 -680 rmoveto
          -390 100 390 vlineto
          endchar
        </CharString>
        <CharString name="bullet">
          -174 124 238 rmoveto
          77 23 44 56 56 -23 44 -77 -78 -22 -44 -56 -56 22 -44 78 hvcurveto
          endchar
        </CharString>
        <CharString name="c">
          -50 291 callsubr
          -116 67 -58 129 63 29 6 9 33 vhcurveto
          4 callsubr
          endchar
        </CharString>
        <CharString name="cacute">
          -50 291 callsubr
          -116 67 -58 129 63 29 6 9 33 vhcurveto
          4 callsubr
          197 326 -50 callsubr
        </CharString>
        <CharString name="caron">
          -76 215 747 -54 callsubr
        </CharString>
        <CharString name="ccaron">
          -50 291 callsubr
          -116 67 -58 129 63 29 6 9 33 vhcurveto
          4 callsubr
          235 326 -54 callsubr
        </CharString>
        <CharString name="ccedilla">
          -50 291 callsubr
          -99 49 -57 94 -14 vhcurveto
          -16 -76 67 callsubr
          8 34 55 1 28 6 31 8 rlinecurve
          4 callsubr
          endchar
        </CharString>
        <CharString name="cedilla">
          -76 139 6 rmoveto
          -18 -83 67 callsubr
          10 45 rlineto
          endchar
        </CharString>
        <CharString name="cent">
          -47 159 655 rmoveto
          -68 vlineto
          -81 -19 -41 -56 -91 vvcurveto
          -252 vlineto
          -89 39 -55 77 -21 vhcurveto
          -71 140 65 vlineto
          26 2 19 4 20 6 rrcurveto
          139 vlineto
          -6 -20 -37 -10 -42 hhcurveto
          -47 -24 10 39 hvcurveto
          226 vlineto
          39 24 10 47 42 37 -10 -6 20 vhcurveto
          139 vlineto
          -19 5 -17 4 -23 3 rrcurveto
          63 vlineto
          endchar
        </CharString>
        <CharString name="circumflex">
          -76 215 632 -36 callsubr
        </CharString>
        <CharString name="colon">
          -169 122 341 rmoveto
          -10 callgsubr
          -351 vmoveto
          -10 callgsubr
          endchar
        </CharString>
        <CharString name="comma">
          -206 209 callsubr
          endchar
        </CharString>
        <CharString name="copyright">
          282 354 hmoveto
          259 60 143 192 197 -56 139 -263 -258 -61 -142 -194 -195 58 -140 261 hvcurveto
          -128 275 rmoveto
          -74 39 -43 97 50 28 10 0 vhcurveto
          88 vlineto
          -6 -38 -14 0 -24 hhcurveto
          -33 -3 11 17 hvcurveto
          117 vlineto
          17 3 11 33 24 14 -1 -6 38 vhcurveto
          89 vlineto
          0 -28 10 -50 -97 -39 -43 -74 vhcurveto
          128 -296 rmoveto
          -201 -10 96 137 136 8 97 203 205 6 -95 -138 -134 -13 -99 -198 hvcurveto
          endchar
        </CharString>
        <CharString name="currency">
          34 290 294 rmoveto
          -33 -17 -20 -40 -40 -17 21 32 vhcurveto
          105 vlineto
          33 17 20 40 40 17 -21 -32 vhcurveto
          89 -333 rmoveto
          85 85 -48 48 rlineto
          13 26 6 30 34 vvcurveto
          115 vlineto
          34 -6 30 -13 25 vhcurveto
          49 49 -85 85 -56 -57 rlineto
          8 -26 -30 5 -35 hhcurveto
          -35 -30 -4 -9 -25 hvcurveto
          -56 57 -85 -85 48 -48 rlineto
          -13 -26 -6 -30 -34 vvcurveto
          -115 vlineto
          -33 6 -31 13 -25 vhcurveto
          -49 -49 85 -85 56 57 rlineto
          -8 26 30 -5 35 hhcurveto
          35 29 4 9 25 hvcurveto
          endchar
        </CharString>
        <CharString name="d">
          36 84 callsubr
          endchar
        </CharString>
        <CharString name="dagger">
          -36 127 833 rmoveto
          -81 10 -91 0 vhcurveto
          204 callsubr
          0 -10 -92 -109 vvcurveto
          -393 140 393 vlineto
          109 -10 92 0 vhcurveto
          202 callsubr
          0 10 91 81 vvcurveto
          endchar
        </CharString>
        <CharString name="daggerdbl">
          -35 126 833 rmoveto
          -81 10 -91 0 vhcurveto
          204 callsubr
          -2 -64 0 -191 2 -70 rrcurveto
          204 callsubr
          0 -10 -57 -115 vvcurveto
          140 hlineto
          115 -10 57 0 vhcurveto
          202 callsubr
          2 70 0 192 -2 63 rrcurveto
          202 callsubr
          0 10 91 81 vvcurveto
          endchar
        </CharString>
        <CharString name="danda">
          -104 140 hmoveto
          283 callsubr
          endchar
        </CharString>
        <CharString name="dcaron">
          64 84 callsubr
          214 291 -67 callsubr
        </CharString>
        <CharString name="dcroat">
          39 268 747 rmoveto
          -47 -128 -64 128 -46 -44 vlineto
          -130 -56 -72 -107 hvcurveto
          -279 vlineto
          -84 43 -52 86 60 35 32 14 11 vhcurveto
          -42 147 636 40 64 -40 47 vlineto
          -151 -602 rmoveto
          -6 -10 -22 -6 -20 hhcurveto
          -20 -8 10 16 hvcurveto
          247 vlineto
          35 17 15 30 vhcurveto
          33 hlineto
          endchar
        </CharString>
        <CharString name="degree">
          14 219 492 rmoveto
          126 52 76 106 106 -52 76 -126 -126 -51 -76 -106 -106 51 -76 126 hvcurveto
          113 vmoveto
          -40 -13 24 45 45 13 24 40 40 14 -24 -45 -45 -14 -24 -40 hvcurveto
          endchar
        </CharString>
        <CharString name="dieresis">
          -76 90 635 rmoveto
          -85 callsubr
          171 hmoveto
          -85 callsubr
          endchar
        </CharString>
        <CharString name="divide">
          72 41 396 234 callsubr
          -207 -311 rmoveto
          58 16 -33 callsubr
          -58 -59 -16 -33 -42 -42 17 -33 59 hvcurveto
          -1 343 -60 callsubr
        </CharString>
        <CharString name="dollar">
          13 147 747 rmoveto
          -59 vlineto
          -87 -22 -40 -56 -79 vvcurveto
          -63 vlineto
          -75 40 -45 57 -32 vhcurveto
          107 -58 rlineto
          34 -18 11 -11 -31 vvcurveto
          -15 vlineto
          -28 -24 -21 -63 -61 -57 14 15 -35 vhcurveto
          -145 vlineto
          15 -6 42 -11 54 -4 rrcurveto
          -50 142 58 vlineto
          93 21 46 56 81 vvcurveto
          62 vlineto
          67 -29 39 -53 29 vhcurveto
          -114 64 rlineto
          -42 23 -9 12 37 vvcurveto
          15 vlineto
          26 10 22 58 61 43 -11 -15 35 vhcurveto
          144 vlineto
          -14 6 -32 9 -46 4 rrcurveto
          51 vlineto
          endchar
        </CharString>
        <CharString name="dotaccent">
          -76 175 635 rmoveto
          -85 callsubr
          endchar
        </CharString>
        <CharString name="dotlessi">
          81 callsubr
          endchar
        </CharString>
        <CharString name="dottedcircle">
          234 183 472 rmoveto
          26 18 19 26 25 -18 19 -26 -26 -18 -19 -25 -26 18 -19 26 hvcurveto
          -80 -109 rmoveto
          24 20 19 25 25 -20 19 -24 -26 -20 -19 -25 -25 20 -19 26 hvcurveto
          -15 -125 rmoveto
          26 18 18 282 callsubr
          -18 25 hvcurveto
          52 -117 rmoveto
          25 19 18 26 25 -19 19 -25 -26 -18 -19 -25 -26 18 -18 26 hvcurveto
          102 -77 rmoveto
          25 19 20 26 24 -19 20 -25 -26 -19 -20 -24 -26 19 -20 26 hvcurveto
          126 -14 rmoveto
          26 19 18 26 26 -19 18 -26 249 callsubr
          121 53 rmoveto
          25 20 18 26 25 -20 19 -25 -25 -19 -19 -25 -26 19 -18 25 hvcurveto
          74 98 rmoveto
          24 19 19 25 26 -19 19 -24 -26 -19 -19 -26 -25 19 -19 26 hvcurveto
          9 134 rmoveto
          25 19 18 26 26 -19 18 -25 249 callsubr
          -50 118 rmoveto
          26 18 19 282 callsubr
          -19 25 hvcurveto
          -94 68 rmoveto
          25 18 20 24 26 -18 19 -25 -26 -19 -19 -26 -24 19 -20 26 hvcurveto
          -127 15 rmoveto
          26 18 18 26 26 -18 18 -26 249 callsubr
          endchar
        </CharString>
        <CharString name="doubledanda">
          16 42 hmoveto
          283 callsubr
          218 -671 rmoveto
          283 callsubr
          endchar
        </CharString>
        <CharString name="dvA">
          182 219 213 rmoveto
          23 callgsubr
          289 callgsubr
          -338 -85 vlineto
          -64 callsubr
          endchar
        </CharString>
        <CharString name="dvAA">
          406 219 213 rmoveto
          23 callgsubr
          84 -90 callsubr
          -446 -338 -85 vlineto
          -64 callsubr
          endchar
        </CharString>
        <CharString name="dvAI">
          15 261 671 rmoveto
          -301 -117 81 -370 hlineto
          213 callsubr
          127 vlineto
          46 callgsubr
          -78 vlineto
          -152 230 rlineto
          -155 hlineto
          endchar
        </CharString>
        <CharString name="dvAU">
          407 357 784 rmoveto
          26 callgsubr
          -92 -338 -85 hlineto
          -64 callsubr
          -41 vlineto
          23 callgsubr
          85 -90 callsubr
          -88 vlineto
          -41 131 rlineto
          76 -24 -46 23 -52 -15 callsubr
          -12 153 callsubr
          -39 138 callsubr
          endchar
        </CharString>
        <CharString name="dvAbbreviationsign">
          14 219 147 rmoveto
          126 52 71 106 106 -52 72 -126 -126 -51 -72 -106 -106 51 -71 126 hvcurveto
          242 vmoveto
          40 14 -20 -45 -45 -14 -19 -40 -40 -13 19 45 45 13 20 40 hvcurveto
          endchar
        </CharString>
        <CharString name="dvAcandra">
          182 219 213 rmoveto
          23 callgsubr
          289 callgsubr
          -338 -85 vlineto
          -64 callsubr
          350 652 8 callgsubr
          71 185 callsubr
          endchar
        </CharString>
        <CharString name="dvAnusvara">
          -426 -112 727 rmoveto
          -1 callsubr
        </CharString>
        <CharString name="dvAnusvara.amI">
          -426 122 737 rmoveto
          -1 callsubr
        </CharString>
        <CharString name="dvAvagraha">
          -5 396 189 rmoveto
          68 -9 41 -66 47 vhcurveto
          -121 86 rlineto
          -26 19 -11 12 30 vvcurveto
          11 vlineto
          21 5 17 34 vhcurveto
          169 130 -180 hlineto
          -123 209 callgsubr
          -26 vlineto
          -58 26 -46 46 -33 vhcurveto
          125 -89 rlineto
          28 -20 8 -20 callsubr
          -29 vlineto
          -20 -8 -18 -36 vhcurveto
          -6 hlineto
          -36 -8 18 20 hvcurveto
          60 -140 -55 vlineto
          -113 56 -60 123 vhcurveto
          18 hlineto
          123 54 60 113 hvcurveto
          endchar
        </CharString>
        <CharString name="dvB">
          -155 -40 671 rmoveto
          -117 488 117 vlineto
          -418 -440 rmoveto
          222 callsubr
          143 133 63 60 118 vhcurveto
          97 vlineto
          118 -63 60 -133 -153 -49 -64 -114 vhcurveto
          275 -63 rmoveto
          239 callgsubr
          53 18 -23 -46 hvcurveto
          -142 -29 rmoveto
          127 -107 rlineto
          -12 -11 -18 -6 -27 hhcurveto
          289 callsubr
          endchar
        </CharString>
        <CharString name="dvBA">
          44 295 495 rmoveto
          171 callgsubr
          -123 -64 -39 -129 hvcurveto
          -117 vlineto
          38 callsubr
          -550 -117 335 vlineto
          -62 -163 rmoveto
          -30 callgsubr
          -223 vmoveto
          -53 -17 23 36 hvcurveto
          70 vlineto
          126 -125 rlineto
          -2 -17 -16 -2 -23 hhcurveto
          endchar
        </CharString>
        <CharString name="dvBH">
          11 247 31 callsubr
          271 118 rmoveto
          -131 -37 callgsubr
          90 callsubr
          137 vlineto
          endchar
        </CharString>
        <CharString name="dvBHA">
          222 248 212 115 callsubr
          -123 -50 -59 -93 hvcurveto
          -75 -57 callgsubr
        </CharString>
        <CharString name="dvBH_LA">
          654 247 31 callsubr
          791 -316 92 callgsubr
          -680 -117 458 231 callsubr
          -67 -49 -21 -39 -28 hvcurveto
          -105 -37 callgsubr
          90 callsubr
          81 -134 vlineto
          -123 60 -59 143 29 22 2 2 16 vhcurveto
          -87 callgsubr
          vlineto
          endchar
        </CharString>
        <CharString name="dvBH_NA">
          609 247 31 callsubr
          746 -316 92 callgsubr
          -626 -117 404 279 callgsubr
          -71 -46 -20 -37 -25 hvcurveto
          -97 -37 callgsubr
          90 callsubr
          76 -101 vlineto
          -103 46 -60 123 217 callgsubr
          vhcurveto
          91 vlineto
          20 -4 29 -2 7 vhcurveto
          66 -362 hlineto
          -198 362 178 callsubr
        </CharString>
        <CharString name="dvBH_R">
          36 520 453 rmoveto
          -132 60 hlineto
          -28 callgsubr
          -12 2 -10 140 callsubr
          -2 7 10 205 callgsubr
          -123 -51 -60 -93 hvcurveto
          -27 vlineto
          -93 51 -60 123 121 52 60 93 vhcurveto
          62 138 vlineto
          -11 vmoveto
          -316 -382 rlineto
          162 hlineto
          59 71 49 58 38 76 8 27 rlinecurve
          -272 104 -89 callgsubr
          18 -86 callsubr
          vhcurveto
          39 hlineto
          endchar
        </CharString>
        <CharString name="dvBH_RA">
          222 466 259 -24 callsubr
          -123 -51 -60 -93 hvcurveto
          -27 vlineto
          -93 51 -60 123 121 52 60 93 vhcurveto
          62 84 vlineto
          -218 -57 -89 callgsubr
          18 -86 callsubr
          vhcurveto
          39 hlineto
          endchar
        </CharString>
        <CharString name="dvBH_R_YA">
          531 248 278 -89 callgsubr
          19 -86 callsubr
          vhcurveto
          39 hlineto
          140 116 rmoveto
          61 vlineto
          -28 callgsubr
          -20 3 -17 140 callsubr
          -3 32 callgsubr
          -56 -39 vlineto
          -26 callsubr
          -29 -75 callgsubr
          63 40 vlineto
          16 12 -1 -3 10 hvcurveto
          -60 vlineto
          -17 2 -17 4 -15 vhcurveto
          -231 -279 rlineto
          162 hlineto
          59 71 31 37 27 44 17 35 rlinecurve
          -28 41 55 -15 65 -52 callgsubr
          -557 -117 126 vlineto
          265 callsubr
          28 -24 -41 12 -63 hhcurveto
          167 -162 rmoveto
          18 vlineto
          77 4 35 41 77 vvcurveto
          77 vlineto
          -102 callgsubr
          endchar
        </CharString>
        <CharString name="dvBH_VA">
          450 701 177 -95 callgsubr
          -454 -171 -89 callgsubr
          65 -86 callsubr
          vhcurveto
          39 hlineto
          587 -316 107 callsubr
          -93 -37 callgsubr
          90 callsubr
          83 169 callgsubr
        </CharString>
        <CharString name="dvBH_YA">
          531 248 31 callsubr
          174 hmoveto
          16 12 -1 -3 10 hvcurveto
          -42 vlineto
          -117 93 -67 139 33 29 3 6 21 vhcurveto
          -95 140 554 82 117 -557 -117 126 vlineto
          0 7 -13 -34 vvcurveto
          -48 vlineto
          -29 -7 -16 -19 -9 vhcurveto
          20 -25 -38 9 -54 hhcurveto
          -42 29 callsubr
        </CharString>
        <CharString name="dvB_BA">
          328 579 495 rmoveto
          171 callgsubr
          -123 -64 -39 -129 hvcurveto
          -80 vlineto
          -137 114 -76 callsubr
          148 56 41 13 24 29 vhcurveto
          -27 33 49 -10 62 hhcurveto
          29 26 3 5 17 hvcurveto
          -61 133 -103 callgsubr
          -834 -117 619 vlineto
          -340 -386 8 callsubr
          278 hmoveto
          -28 callsubr
          endchar
        </CharString>
        <CharString name="dvB_BHA">
          492 -40 554 rmoveto
          301 117 -301 hlineto
          558 -459 -89 callgsubr
          65 -86 callsubr
          vhcurveto
          39 hlineto
          -284 -148 52 callsubr
          284 266 rmoveto
          -39 hlineto
          -26 callsubr
          -18 vlineto
          -129 108 76 callgsubr
          53 40 13 23 28 vhcurveto
          -22 28 41 -13 57 hhcurveto
          230 callgsubr
          hvcurveto
          109 84 -316 -107 callgsubr
          -222 -237 -78 79 vlineto
          -28 callgsubr
          -20 3 -17 140 callsubr
          -3 19 13 120 callsubr
        </CharString>
        <CharString name="dvB_BH_RA">
          491 -39 554 rmoveto
          299 117 -299 hlineto
          774 -412 -24 callsubr
          -123 -51 -60 -93 hvcurveto
          -27 vlineto
          -3 0 -2 -2 vvcurveto
          -127 106 76 callgsubr
          81 50 30 52 26 vhcurveto
          -10 24 29 -5 36 hhcurveto
          121 52 60 93 hvcurveto
          62 84 vlineto
          -501 -167 52 callsubr
          283 110 -89 callgsubr
          18 -86 callsubr
          vhcurveto
          39 hlineto
          endchar
        </CharString>
        <CharString name="dvB_DA">
          279 239 168 8 callsubr
          427 110 rmoveto
          -140 -88 hlineto
          -3 -10 -12 -3 -17 hhcurveto
          -35 -8 14 24 hvcurveto
          109 82 callgsubr
          -784 -117 557 51 callgsubr
          -70 vlineto
          -127 106 -76 callsubr
          148 54 39 12 23 27 vhcurveto
          -18 26 35 -9 47 hhcurveto
          27 22 3 3 12 hvcurveto
          -67 140 vlineto
          endchar
        </CharString>
        <CharString name="dvB_DHA">
          349 234 168 52 callsubr
          88 386 rmoveto
          0 -11 -17 -30 -21 callsubr
          -3 147 callsubr
          143 57 42 15 27 29 vhcurveto
          -24 32 46 -14 61 hhcurveto
          43 31 5 5 20 hvcurveto
          -67 -107 callgsubr
          -222 -479 vlineto
          -6 -24 -20 -4 -30 hhcurveto
          -45 -29 -82 callsubr
          16 13 0 vhcurveto
          56 117 -563 -117 hlineto
          endchar
        </CharString>
        <CharString name="dvB_DH_VA">
          600 233 168 52 callsubr
          611 331 15 callsubr
          -539 -117 357 hlineto
          -35 callgsubr
          -4 vlineto
          -129 108 76 callgsubr
          59 42 16 28 29 vhcurveto
          -25 34 51 -15 71 hhcurveto
          63 45 13 12 37 hvcurveto
          -31 callsubr
        </CharString>
        <CharString name="dvB_JA">
          505 677 181 callsubr
          72 117 -1001 -117 789 -63 -267 115 callgsubr
          17 17 90 callgsubr
          203 callgsubr
          -514 71 69 callgsubr
        </CharString>
        <CharString name="dvB_JHA">
          634 234 148 52 callsubr
          398 63 56 callgsubr
          -6 20 -8 12 vhcurveto
          79 -220 -107 callgsubr
          -1140 -117 700 -50 -80 184 callgsubr
          -10 vlineto
          -8 0 -8 1 -8 vhcurveto
          -107 -83 hlineto
          239 callgsubr
          20 16 -4 0 hvcurveto
          115 vlineto
          0 -20 4 -28 -6 callsubr
          143 143 40 78 87 vhcurveto
          13 vlineto
          165 117 rmoveto
          215 callsubr
          220 276 callgsubr
        </CharString>
        <CharString name="dvB_J_YA">
          828 297 554 rmoveto
          117 -337 -117 vlineto
          1046 -47 -107 callsubr
          -558 124 rmoveto
          415 hlineto
          -61 callgsubr
          -16 -2 -12 -5 -9 vhcurveto
          42 -18 -50 27 -94 hhcurveto
          -219 115 callgsubr
          17 17 90 callgsubr
          -3 1 -3 1 -3 1 63 118 rcurveline
          10 -3 11 -3 12 -4 -10 -54 -29 -37 -48 -20 rrcurveto
          203 callgsubr
          52 callgsubr
          5 hlineto
          62 22 -9 -34 hvcurveto
          -58 vlineto
          -91 callsubr
          -846 vlineto
          -285 -378 69 callgsubr
        </CharString>
        <CharString name="dvB_JxA">
          505 677 222 rmoveto
          102 vlineto
          74 callsubr
          82 117 -1011 -117 789 -63 -267 115 callgsubr
          16 18 90 callgsubr
          203 callgsubr
          -332 -199 232 callsubr
          -182 270 69 callgsubr
        </CharString>
        <CharString name="dvB_LA">
          507 239 168 8 callsubr
          652 386 rmoveto
          82 117 -1013 -117 791 -66 hlineto
          -29 callgsubr
          -74 vlineto
          -138 115 -76 callsubr
          148 42 34 7 14 26 vhcurveto
          -50 30 57 -24 92 hhcurveto
          -5 callgsubr
          hvcurveto
          -87 callgsubr
          140 vlineto
          endchar
        </CharString>
        <CharString name="dvB_L_YA">
          802 233 168 52 callsubr
          747 339 -101 callsubr
          -20 -3 -14 -9 -10 vhcurveto
          49 -24 -47 29 -73 hhcurveto
          -58 -30 -24 -30 -20 hvcurveto
          124 callsubr
          -52 -60 -103 hvcurveto
          -66 147 callsubr
          143 38 32 7 13 25 vhcurveto
          -49 28 53 -24 91 hhcurveto
          -5 callgsubr
          hvcurveto
          -75 callsubr
          7 16 32 -55 callgsubr
          -56 vlineto
          -91 callsubr
          -1308 157 callgsubr
        </CharString>
        <CharString name="dvB_NA">
          437 224 376 rmoveto
          53 8 -23 -46 hvcurveto
          -36 vlineto
          -110 88 rlineto
          11 10 15 6 24 hhcurveto
          -208 vmoveto
          -48 -13 23 46 hvcurveto
          43 vlineto
          112 -90 rlineto
          -15 -8 -16 -7 -27 hhcurveto
          457 194 rmoveto
          -362 -107 callgsubr
          -943 -117 721 279 callgsubr
          -52 -38 -11 -20 -27 hvcurveto
          20 -26 -37 11 -52 hhcurveto
          -143 -49 -64 -114 hvcurveto
          -82 vlineto
          -114 49 -64 143 51 37 11 19 27 vhcurveto
          -20 26 39 -11 52 -66 callsubr
        </CharString>
        <CharString name="dvB_R">
          -155 10 -86 rmoveto
          169 hlineto
          137 142 rlineto
          65 68 47 41 86 vvcurveto
          77 vlineto
          118 -63 60 -133 -153 -49 -64 -114 vhcurveto
          -77 vlineto
          -99 45 -55 93 -18 vhcurveto
          -208 475 rmoveto
          491 117 -491 hlineto
          274 -280 rmoveto
          53 18 -23 -46 hvcurveto
          -43 vlineto
          -127 94 rlineto
          12 11 18 6 27 hhcurveto
          -203 vmoveto
          289 callsubr
          41 vlineto
          126 -93 rlineto
          -11 -11 -18 -6 -26 hhcurveto
          endchar
        </CharString>
        <CharString name="dvB_RA">
          45 296 hmoveto
          133 -103 callgsubr
          -551 -117 336 -59 hlineto
          171 callgsubr
          -123 -64 -39 -129 hvcurveto
          -109 78 callgsubr
        </CharString>
        <CharString name="dvB_SA">
          485 239 168 8 callsubr
          419 -151 -86 callgsubr
          -991 -117 544 hlineto
          0 10 -20 callsubr
          -123 vlineto
          -23 -6 -16 -33 229 callgsubr
          vhcurveto
          102 -140 -186 147 callsubr
          148 39 32 7 12 26 vhcurveto
          -48 32 59 -29 89 hhcurveto
          62 45 9 13 37 hvcurveto
          108 callgsubr
        </CharString>
        <CharString name="dvB_SHA">
          490 -40 554 rmoveto
          301 117 -301 hlineto
          774 hmoveto
          -671 -107 callgsubr
          vlineto
          -717 -503 8 callsubr
          434 345 44 callgsubr
          2 -16 2 -14 168 callgsubr
          -3 12 -1 11 15 vvcurveto
          23 6 19 96 callsubr
          -116 vlineto
          -23 -6 -15 -33 -21 -18 5 0 vhcurveto
          44 -140 -146 vlineto
          -138 115 -76 callsubr
          148 45 36 9 16 27 vhcurveto
          -46 30 54 -30 84 hhcurveto
          62 45 9 13 37 hvcurveto
          -72 callgsubr
          endchar
        </CharString>
        <CharString name="dvB_TA">
          317 239 168 8 callsubr
          265 -38 rmoveto
          -18 callsubr
          23 27 -5 0 vhcurveto
          -362 -107 callgsubr
          -823 -117 601 200 callgsubr
          258 callsubr
          vhcurveto
          -66 vlineto
          -138 115 -76 callsubr
          148 37 30 6 11 24 vhcurveto
          -48 19 43 -24 84 hhcurveto
          30 hlineto
          endchar
        </CharString>
        <CharString name="dvB_VA">
          291 239 168 rmoveto
          -58 -18 23 46 hvcurveto
          56 vlineto
          128 -107 rlineto
          -12 -11 -16 -6 -25 hhcurveto
          296 331 rmoveto
          -17 callgsubr
          -81 147 callsubr
          148 49 37 12 20 26 vhcurveto
          -22 26 39 -11 55 hhcurveto
          29 22 4 3 15 hvcurveto
          143 callgsubr
          -797 -117 575 vlineto
          7 -377 -95 callgsubr
          endchar
        </CharString>
        <CharString name="dvB_YA">
          376 239 168 8 callsubr
          315 339 -79 callgsubr
          -5 147 callsubr
          148 76 49 25 42 28 vhcurveto
          -22 39 50 -12 58 -52 callgsubr
          -882 157 callgsubr
        </CharString>
        <CharString name="dvC">
          261 callsubr
          6 -371 rmoveto
          -4 -12 -25 -3 -19 hhcurveto
          -33 -25 -3 callsubr
          56 -53 115 26 37 3 5 20 vhcurveto
          endchar
        </CharString>
        <CharString name="dvCA">
          63 207 226 callsubr
          -258 -126 60 hlineto
          0 -6 -19 -30 vvcurveto
          -97 212 callgsubr
          -568 -117 347 -371 137 callsubr
          endchar
        </CharString>
        <CharString name="dvCH">
          129 272 491 106 callsubr
          359 117 -635 -117 101 hlineto
          -11 -16 -5 -20 -20 vvcurveto
          -130 vlineto
          58 callgsubr
          172 vlineto
          110 -72 44 -102 -40 -34 -10 0 vhcurveto
          endchar
        </CharString>
        <CharString name="dvCHA">
          129 40 368 rmoveto
          58 callgsubr
          150 callgsubr
          -634 -117 91 1 callgsubr
        </CharString>
        <CharString name="dvCH_R">
          -14 callsubr
          288 -683 -45 callsubr
          endchar
        </CharString>
        <CharString name="dvCH_RA">
          -14 callsubr
          endchar
        </CharString>
        <CharString name="dvCH_R_YA">
          656 277 -3 rmoveto
          2 hlineto
          36 -96 128 callsubr
          -51 111 rlineto
          80 24 28 53 86 vvcurveto
          172 vlineto
          10 0 9 -1 9 vhcurveto
          158 200 callsubr
          -15 vlineto
          -22 -7 -8 -27 vhcurveto
          -79 -90 -9 callgsubr
          -1170 -117 91 186 callgsubr
          -139 vlineto
          71 callgsubr
          -79 33 -48 79 -22 vhcurveto
          -50 -110 128 callsubr
          36 96 rlineto
          542 159 213 callgsubr
          -206 52 447 119 callgsubr
          -638 351 rmoveto
          -62 callsubr
        </CharString>
        <CharString name="dvCH_YA">
          656 520 175 rmoveto
          172 vlineto
          7 0 7 -1 6 vhcurveto
          145 200 callsubr
          -4 vlineto
          -22 -7 -8 -27 vhcurveto
          -79 -93 -9 callgsubr
          -1162 -117 101 vlineto
          -11 -16 -5 -20 -20 vvcurveto
          -130 vlineto
          58 callgsubr
          -248 316 106 callsubr
          664 119 callgsubr
          138 callgsubr
          26 183 callsubr
          -249 hlineto
          5 -19 -22 2 -23 hhcurveto
          -40 -34 -10 0 hvcurveto
          endchar
        </CharString>
        <CharString name="dvC_CA">
          313 457 226 callsubr
          -228 -120 30 hlineto
          0 -6 -25 -30 vvcurveto
          -97 vlineto
          -14 1 -13 1 -12 vhcurveto
          -3 -13 -15 -1 -16 hhcurveto
          -37 -31 13 35 hvcurveto
          91 vlineto
          42 11 14 0 vhcurveto
          27 120 -232 -126 60 hlineto
          0 -6 -19 -30 vvcurveto
          -97 vlineto
          -113 78 -53 115 59 40 11 10 25 vhcurveto
          -14 26 33 -7 41 hhcurveto
          26 27 3 5 20 hvcurveto
          206 callgsubr
          -818 -117 597 -371 137 callsubr
          endchar
        </CharString>
        <CharString name="dvC_CHA">
          425 337 368 rmoveto
          -47 61 callgsubr
          -1 vlineto
          -4 -17 -19 -2 -21 hhcurveto
          -37 -31 -3 callsubr
          78 -53 115 42 32 5 7 24 vhcurveto
          -47 33 69 -21 114 hhcurveto
          216 callsubr
          hvcurveto
          150 callgsubr
          -931 -117 388 1 callgsubr
        </CharString>
        <CharString name="dvC_CH_VA">
          426 337 368 rmoveto
          -47 61 callgsubr
          -1 vlineto
          -4 -17 -19 -2 -21 hhcurveto
          -37 -31 -3 callsubr
          78 -53 115 42 32 5 7 24 vhcurveto
          11 -16 16 -13 21 -11 rrcurveto
          -23 -16 -15 -25 -39 vvcurveto
          -33 vlineto
          -113 70 -46 113 30 23 3 5 20 vhcurveto
          -41 141 323 vlineto
          34 29 13 44 59 vvcurveto
          150 callgsubr
          -931 -117 388 186 callgsubr
          226 -639 rmoveto
          -45 -17 15 35 hvcurveto
          27 vlineto
          35 17 17 45 vhcurveto
          0 vlineto
          4 3 0 4 hhcurveto
          18 17 1 1 16 hvcurveto
          -123 vlineto
          -5 -18 -17 -3 -27 hhcurveto
          -86 639 rmoveto
          -62 callsubr
        </CharString>
        <CharString name="dvC_MA">
          490 663 1 callsubr
          -996 -117 569 214 callgsubr
          -10 1 -9 1 -10 vhcurveto
          -2 -14 -14 -1 -16 hhcurveto
          -37 -31 -3 callsubr
          78 -53 115 63 41 12 10 24 vhcurveto
          -13 26 34 -7 42 104 callgsubr
          endchar
        </CharString>
        <CharString name="dvC_NA">
          471 715 362 rmoveto
          -362 -107 callgsubr
          -977 -117 755 204 callgsubr
          -12 1 -12 1 -11 vhcurveto
          -2 -14 -16 -2 -16 hhcurveto
          -37 -31 -3 callsubr
          78 -53 115 60 40 11 10 25 vhcurveto
          -14 26 33 -8 44 -66 callsubr
        </CharString>
        <CharString name="dvC_R">
          261 callsubr
          15 -339 rmoveto
          -4 -12 -19 -5 -30 hhcurveto
          -36 -26 13 35 hvcurveto
          61 vlineto
          42 11 14 0 vhcurveto
          53 120 -258 -126 60 hlineto
          0 -6 -19 -30 vvcurveto
          -67 vlineto
          -94 39 -52 78 -15 vhcurveto
          -168 -150 rlineto
          173 hlineto
          141 134 rlineto
          endchar
        </CharString>
        <CharString name="dvC_RA">
          66 210 226 callsubr
          -248 -126 50 hlineto
          0 -6 -19 -30 vvcurveto
          -33 vlineto
          -80 26 -50 56 -22 vhcurveto
          -114 -141 rlineto
          162 hlineto
          110 135 rlineto
          0 vlineto
          -125 -107 callgsubr
          -572 -117 350 -320 137 callsubr
          endchar
        </CharString>
        <CharString name="dvC_YA">
          408 586 23 callsubr
          -31 6 -27 12 -24 vhcurveto
          -7 -24 -26 -5 -27 hhcurveto
          -37 -34 -3 callsubr
          81 -53 127 88 49 27 26 38 vhcurveto
          -13 34 40 -7 45 -52 callgsubr
          -914 157 callgsubr
        </CharString>
        <CharString name="dvCandrabindu">
          -426 -111 910 159 callgsubr
          70 -4 8 callgsubr
          71 185 callsubr
          endchar
        </CharString>
        <CharString name="dvD">
          4 30 217 -76 callgsubr
          -510 -117 283 -59 -32 hlineto
          -123 -58 -39 -120 hvcurveto
          493 -565 -45 callsubr
          endchar
        </CharString>
        <CharString name="dvDA">
          4 30 217 -76 callgsubr
          -510 -117 283 177 callgsubr
        </CharString>
        <CharString name="dvDA_mvR">
          4 30 247 rmoveto
          -103 48 -53 113 17 29 3 5 17 vhcurveto
          -46 vlineto
          -107 -7 -47 -59 -101 vvcurveto
          -108 70 -60 123 35 29 2 6 36 300 callgsubr
          -5 -33 -26 -3 -36 hhcurveto
          -37 -23 7 33 33 24 7 37 33 16 -3 -5 44 hvcurveto
          360 -140 -57 vlineto
          0 -19 -7 -22 -35 -6 14 24 vhcurveto
          79 172 callgsubr
          endchar
        </CharString>
        <CharString name="dvDD">
          4 40 callgsubr
          19 -385 -45 callsubr
          endchar
        </CharString>
        <CharString name="dvDDA">
          3 40 callgsubr
          endchar
        </CharString>
        <CharString name="dvDDH">
          9 209 499 rmoveto
          -123 -52 -46 -113 hvcurveto
          -173 77 callgsubr
          -514 270 callgsubr
          hlineto
          181 -728 -45 callsubr
          endchar
        </CharString>
        <CharString name="dvDDHA">
          9 209 499 rmoveto
          -123 -52 -46 -113 hvcurveto
          -173 77 callgsubr
          -514 270 callgsubr
          hlineto
          endchar
        </CharString>
        <CharString name="dvDDH_DDHA">
          245 callgsubr
          -45 12 -36 23 -26 vhcurveto
          -26 -24 -12 -36 -47 vvcurveto
          -133 vlineto
          -108 68 -54 130 130 64 49 108 vhcurveto
          128 callgsubr
          19 24 14 -6 -28 vhcurveto
          -1 266 callgsubr
          43 10 14 43 vhcurveto
          10 hlineto
          130 64 49 108 hvcurveto
          128 callgsubr
          19 24 14 -6 -28 vhcurveto
          -1 156 callgsubr
          endchar
        </CharString>
        <CharString name="dvDDH_R">
          9 430 -330 -45 callsubr
          -77 829 rmoveto
          -123 -52 -46 -113 hvcurveto
          -173 vlineto
          -69 21 -49 47 -27 vhcurveto
          -58 -126 128 callsubr
          37 99 rlineto
          1 hlineto
          37 -99 128 callsubr
          -58 128 rlineto
          41 26 18 46 66 vvcurveto
          -56 callgsubr
          174 182 91 117 -514 270 callgsubr
          hlineto
          endchar
        </CharString>
        <CharString name="dvDDH_RA">
          243 callgsubr
          -68 21 -48 45 -28 vhcurveto
          -56 -122 128 callsubr
          35 94 rlineto
          0 5 vlineto
          35 -94 128 callsubr
          -57 124 rlineto
          40 27 18 45 65 vvcurveto
          -56 callgsubr
          174 182 91 117 -514 270 callgsubr
          hlineto
          endchar
        </CharString>
        <CharString name="dvDDH_VA">
          245 callgsubr
          -51 15 -35 29 -23 vhcurveto
          -20 -18 -13 -26 -36 238 callgsubr
          310 vlineto
          23 22 11 32 45 vvcurveto
          128 callgsubr
          22 21 14 -9 -22 vhcurveto
          -4 156 callgsubr
          -25 -568 rmoveto
          -35 -7 15 25 hvcurveto
          27 vlineto
          45 8 8 47 vhcurveto
          0 vlineto
          9 10 0 1 10 275 callgsubr
        </CharString>
        <CharString name="dvDDH_YA">
          541 222 -5 rmoveto
          130 54 54 113 hvcurveto
          -56 callgsubr
          340 200 callsubr
          -9 vlineto
          -22 -7 -8 -27 vhcurveto
          -79 -93 -9 callgsubr
          -1047 270 callgsubr
          -36 vlineto
          -123 -52 -46 -113 hvcurveto
          -173 vlineto
          -113 58 -59 130 vhcurveto
          473 161 266 callsubr
          31 183 callsubr
          -161 55 402 119 callgsubr
          endchar
        </CharString>
        <CharString name="dvDDHxA">
          243 callgsubr
          -113 58 -59 130 130 54 54 113 vhcurveto
          15 vlineto
          113 -50 39 -98 -29 -19 -8 0 vhcurveto
          -123 vlineto
          0 11 8 18 20 13 -6 -28 vhcurveto
          -2 vlineto
          -31 -8 -16 -42 -42 -8 18 31 vhcurveto
          163 vlineto
          23 4 14 33 vhcurveto
          174 182 91 117 -514 270 callgsubr
          hlineto
          -20 -698 -60 callsubr
        </CharString>
        <CharString name="dvDD_DDA">
          29 28 72 rmoveto
          14 -3 16 -4 18 -2 rrcurveto
          -6 -16 -2 -16 -15 vvcurveto
          -110 87 -18 82 vhcurveto
          13 hlineto
          32 8 -11 -19 1 hvcurveto
          -6 vlineto
          -25 -23 -7 -54 -56 -73 11 9 -40 vhcurveto
          -115 vlineto
          -11 47 63 -9 59 hhcurveto
          151 71 44 99 hvcurveto
          198 callsubr
          -24 -8 6 20 19 9 8 23 hvcurveto
          0 vlineto
          138 4 65 44 95 vvcurveto
          198 callsubr
          -23 -8 6 18 -1 hvcurveto
          4 vlineto
          19 9 6 23 vhcurveto
          179 159 95 117 -533 -117 292 217 callsubr
          31 10 -10 -18 248 callgsubr
        </CharString>
        <CharString name="dvDD_DDHA">
          27 28 72 rmoveto
          10 -2 11 -3 12 -2 rrcurveto
          -16 -26 -8 -33 -38 vvcurveto
          -103 vlineto
          -108 68 -54 130 130 64 49 108 vhcurveto
          128 callgsubr
          19 24 14 -8 -23 vhcurveto
          -4 266 callgsubr
          38 7 16 25 3 vhcurveto
          148 74 42 101 hvcurveto
          198 callsubr
          -24 -8 6 20 19 9 8 23 hvcurveto
          179 159 95 117 -533 -117 292 -55 -25 hlineto
          -128 -58 -43 -93 hvcurveto
          -6 vlineto
          -105 72 -19 110 vhcurveto
          20 hlineto
          31 10 -11 -17 248 callgsubr
        </CharString>
        <CharString name="dvDD_R">
          -1 400 65 callgsubr
          14 -3 14 -3 14 -2 -49 -108 rcurveline
          261 callgsubr
          -59 129 rlineto
          -7 hlineto
          47 27 22 45 65 vvcurveto
          15 -486 -45 callsubr
          endchar
        </CharString>
        <CharString name="dvDD_RA">
          4 408 65 callgsubr
          13 -3 12 -2 13 -3 -45 -97 rcurveline
          143 hlineto
          33 89 rlineto
          3 3 0 3 hhcurveto
          33 -89 128 callsubr
          -57 124 rlineto
          40 27 20 43 61 vvcurveto
          endchar
        </CharString>
        <CharString name="dvDD_VA">
          38 31 70 rmoveto
          10 -2 12 -3 13 -2 rrcurveto
          -8 -15 -5 -18 -22 238 callgsubr
          314 vlineto
          26 23 12 32 41 vvcurveto
          198 callsubr
          -23 -9 6 17 hvcurveto
          3 vlineto
          19 9 8 23 vhcurveto
          179 159 95 117 -542 -117 301 217 callsubr
          32 8 -12 -18 1 hvcurveto
          -4 vlineto
          -32 -34 -2 -43 -56 -89 11 9 -40 vhcurveto
          197 -254 rmoveto
          -35 -7 15 25 hvcurveto
          27 vlineto
          37 5 12 28 3 vhcurveto
          16 18 1 1 17 275 callgsubr
        </CharString>
        <CharString name="dvDD_YA">
          533 194 -11 rmoveto
          125 callsubr
          7 284 callgsubr
          -25 hlineto
          -23 -6 12 19 hvcurveto
          10 vlineto
          19 7 12 22 vhcurveto
          337 200 callsubr
          -21 vlineto
          -22 -7 -8 -27 vhcurveto
          -79 -93 -9 callgsubr
          -1039 -117 278 177 callsubr
          -53 -51 9 8 -39 hvcurveto
          -127 vlineto
          -10 45 42 -7 56 hhcurveto
          493 167 266 callsubr
          43 vlineto
          103 -54 33 -121 vhcurveto
          -158 50 399 119 callgsubr
          endchar
        </CharString>
        <CharString name="dvDDxA">
          4 225 -199 rmoveto
          -89 callsubr
          183 362 45 callgsubr
          endchar
        </CharString>
        <CharString name="dvDH">
          -144 343 192 rmoveto
          -8 -27 -41 -2 -25 hhcurveto
          -45 -30 -82 callsubr
          10 13 0 vhcurveto
          38 117 -269 -117 87 hlineto
          -35 callgsubr
          -51 vlineto
          -92 65 -68 131 37 43 3 7 32 vhcurveto
          endchar
        </CharString>
        <CharString name="dvDHA">
          79 52 554 rmoveto
          0 -11 -17 -30 -21 callsubr
          -51 vlineto
          -97 63 -63 131 43 31 5 5 20 vhcurveto
          -67 -107 callgsubr
          -222 -479 vlineto
          -6 -24 -20 -4 -30 hhcurveto
          -45 -29 -82 callsubr
          16 13 0 vhcurveto
          56 117 -293 -117 hlineto
          endchar
        </CharString>
        <CharString name="dvDH_MA">
          517 556 6 callsubr
          -652 -117 225 214 callgsubr
          -5 0 -5 -5 vvcurveto
          -7 -27 -29 -4 -33 hhcurveto
          -53 -27 -82 callsubr
          10 13 0 vhcurveto
          38 117 -269 -117 87 hlineto
          66 callgsubr
          67 48 15 12 37 vhcurveto
          -19 28 39 -10 51 104 callgsubr
          endchar
        </CharString>
        <CharString name="dvDH_NA">
          490 734 362 rmoveto
          -362 -107 callgsubr
          -648 -117 426 204 callgsubr
          -8 0 -8 1 -8 285 callsubr
          -53 -27 -82 callsubr
          10 13 0 vhcurveto
          38 117 -269 -117 87 hlineto
          66 callgsubr
          63 45 13 12 36 vhcurveto
          -20 27 38 -10 51 -66 callsubr
        </CharString>
        <CharString name="dvDH_N_YA">
          826 542 362 rmoveto
          -104 callsubr
          491 121 callsubr
          -25 -5 -16 -14 -9 vhcurveto
          54 -27 -54 28 -76 hhcurveto
          -179 hlineto
          -47 callgsubr
          -113 vlineto
          -8 0 -7 1 -7 vhcurveto
          -7 -28 -29 -4 -33 hhcurveto
          -53 -27 -82 callsubr
          10 13 0 vhcurveto
          38 117 -269 155 callgsubr
          38 vhcurveto
          -20 27 38 -11 52 hhcurveto
          217 callgsubr
          hvcurveto
          91 vlineto
          20 -4 29 -2 7 vhcurveto
          32 hlineto
          36 13 -17 -32 hvcurveto
          -43 vlineto
          -91 callsubr
          -968 157 callgsubr
        </CharString>
        <CharString name="dvDH_R">
          -144 35 246 rmoveto
          225 callgsubr
          136 vlineto
          150 callsubr
          58 117 -289 -117 87 hlineto
          0 -6 -16 -31 vvcurveto
          -25 -38 callsubr
          endchar
        </CharString>
        <CharString name="dvDH_RA">
          83 327 212 rmoveto
          73 callsubr
          64 117 -299 -117 91 hlineto
          0 -6 -16 -31 vvcurveto
          -32 vlineto
          -46 13 -30 25 -19 vhcurveto
          -29 -17 -15 -31 -54 141 callsubr
        </CharString>
        <CharString name="dvDH_VA">
          330 574 499 15 callsubr
          -269 -117 87 hlineto
          66 callgsubr
          63 45 13 12 37 vhcurveto
          -31 callsubr
        </CharString>
        <CharString name="dvDH_YA">
          415 593 23 callsubr
          -27 5 -24 9 -22 vhcurveto
          -9 -35 -36 -6 -32 hhcurveto
          -53 -27 -82 callsubr
          10 13 0 vhcurveto
          38 117 -269 -117 87 hlineto
          85 callgsubr
        </CharString>
        <CharString name="dvD_BA">
          46 214 113 rmoveto
          15 37 0 12 24 hvcurveto
          -95 vlineto
          -99 80 rlineto
          2 6 8 1 9 234 callgsubr
          -59 vlineto
          -108 50 -56 143 143 56 61 109 1 vhcurveto
          303 -138 -82 vlineto
          -4 -16 -18 -3 -22 hhcurveto
          -45 -11 19 29 hvcurveto
          59 297 callgsubr
          91 117 -552 242 callsubr
          -392 rmoveto
          -57 -5 25 35 hvcurveto
          37 vlineto
          107 -87 rlineto
          -6 -9 -14 -4 -22 hhcurveto
          endchar
        </CharString>
        <CharString name="dvD_BHA">
          162 219 -102 rmoveto
          9 -13 3 -11 -19 -13 -19 -14 -10 7 -9 13 -2 3 rcurveline
          -9 13 -3 11 18 14 23 16 rcurveline
          -13 293 rmoveto
          -74 25 -48 55 -21 vhcurveto
          -36 -26 -29 39 -42 59 -54 14 -70 -52 rlinecurve
          -68 -49 -6 -56 41 -58 15 -23 rcurveline
          80 58 -15 19 -9 13 -4 10 19 14 rlinecurve
          18 13 8 -8 10 -12 27 -38 rcurveline
          -22 -16 -70 -50 -5 -55 38 -52 rlinecurve
          6 -9 38 -53 53 -14 70 51 rlinecurve
          70 49 4 55 -38 53 -20 28 rcurveline
          123 87 4 1 3 0 3 1 rlinecurve
          -67 140 278 -140 -88 170 callgsubr
          109 82 callgsubr
          -668 -117 441 177 callgsubr
        </CharString>
        <CharString name="dvD_B_RA">
          40 214 143 rmoveto
          15 37 0 12 24 hvcurveto
          -88 vlineto
          -97 74 rlineto
          1 5 8 1 8 234 callgsubr
          -49 vlineto
          -83 29 -43 69 -16 vhcurveto
          -97 -119 270 callsubr
          100 123 rlineto
          1 0 0 0 hvcurveto
          -77 138 484 -138 -48 vlineto
          -6 -14 -19 -5 -23 hhcurveto
          -45 -11 19 29 hvcurveto
          29 297 callgsubr
          85 117 -546 242 callsubr
          -352 rmoveto
          -57 -5 25 35 hvcurveto
          31 vlineto
          106 -81 rlineto
          -7 -9 -14 -3 -21 hhcurveto
          endchar
        </CharString>
        <CharString name="dvD_DA">
          6 35 360 rmoveto
          -44 13 -29 25 -18 vhcurveto
          -25 -17 -13 -29 -44 vvcurveto
          -49 vlineto
          -93 48 -53 113 34 27 5 0 vhcurveto
          -56 140 228 -140 -59 vlineto
          0 -19 -5 -22 -35 -6 14 24 vhcurveto
          39 vlineto
          24 190 callsubr
          113 117 -113 hlineto
          -35 -6 13 23 hvcurveto
          2 vlineto
          23 72 callgsubr
          152 84 117 -512 278 callsubr
          -45 -52 hlineto
          -113 -48 -39 -100 hvcurveto
          endchar
        </CharString>
        <CharString name="dvD_DHA">
          195 230 217 rmoveto
          297 callsubr
          -40 -33 4 35 vhcurveto
          10 vlineto
          19 3 14 30 vhcurveto
          25 109 -20 hlineto
          -30 -3 14 20 hvcurveto
          11 vlineto
          20 3 14 30 vhcurveto
          19 108 -19 122 callgsubr
          -67 140 278 -140 -88 170 callgsubr
          109 vlineto
          -27 callsubr
          78 117 -701 -117 483 177 callgsubr
        </CharString>
        <CharString name="dvD_GA">
          22 42 217 rmoveto
          -56 14 -42 32 -26 vhcurveto
          -48 vlineto
          -32 -8 -11 -35 vhcurveto
          -17 -119 hlineto
          0 20 -3 22 112 36 38 113 vhcurveto
          31 vlineto
          15 1 19 4 12 4 rrcurveto
          -231 140 438 -140 -89 vlineto
          0 -17 -5 -24 -35 -6 14 24 vhcurveto
          109 vlineto
          -27 callsubr
          93 117 -528 -117 295 177 callgsubr
        </CharString>
        <CharString name="dvD_GHA">
          200 217 12 rmoveto
          -40 -33 4 35 hvcurveto
          10 vlineto
          19 3 14 30 vhcurveto
          25 109 -20 hlineto
          -30 -3 14 20 hvcurveto
          11 vlineto
          20 3 14 30 vhcurveto
          48 -65 hlineto
          297 callsubr
          vhcurveto
          235 55 rmoveto
          -67 140 278 -140 -88 170 callgsubr
          109 vlineto
          -27 callsubr
          83 117 -706 -117 483 -59 -32 hlineto
          -102 -58 -27 -78 -16 hvcurveto
          -53 122 callgsubr
          endchar
        </CharString>
        <CharString name="dvD_G_RA">
          11 399 -199 rmoveto
          497 -140 -59 vlineto
          0 -18 -5 -23 -35 -6 14 24 vhcurveto
          59 82 callgsubr
          -517 -117 290 51 callgsubr
          -69 vlineto
          -49 11 -37 23 -26 vhcurveto
          -46 vlineto
          -32 -8 -11 -35 vhcurveto
          -17 -118 hlineto
          0 16 -4 26 112 36 38 113 vhcurveto
          16 vlineto
          12 27 2 9 19 hvcurveto
          -98 vlineto
          -216 -263 rlineto
          142 hlineto
          7 9 34 43 29 38 18 39 rlinecurve
          2 hlineto
          -5 -18 0 -19 -19 vvcurveto
          -33 vlineto
          endchar
        </CharString>
        <CharString name="dvD_MA">
          261 405 86 rmoveto
          206 -133 -63 vlineto
          0 -17 -10 -34 -45 -6 19 24 vhcurveto
          64 vlineto
          24 6 18 45 vhcurveto
          182 186 105 -468 hlineto
          -118 vmoveto
          -145 137 731 82 117 -767 -117 303 -59 -42 vlineto
          -133 -58 -44 -120 hvcurveto
          -69 vlineto
          -103 53 -61 118 15 43 3 9 13 vhcurveto
          -206 132 64 vlineto
          endchar
        </CharString>
        <CharString name="dvD_NA">
          5 30 227 rmoveto
          -71 23 -38 51 -16 vhcurveto
          -27 -23 -85 -71 -10 -77 51 -53 rlinecurve
          34 -36 43 1 0 vvcurveto
          86 77 rlineto
          0 -26 5 -15 16 vhcurveto
          -17 18 -7 25 32 29 89 80 rcurveline
          -93 140 278 -140 -78 170 callgsubr
          99 172 callgsubr
          endchar
        </CharString>
        <CharString name="dvD_R">
          12 536 -234 -45 callsubr
          -354 453 rmoveto
          -69 22 -38 49 -17 vhcurveto
          -88 -158 rlineto
          150 hlineto
          89 160 rlineto
          0 vlineto
          -97 140 278 -140 -54 vlineto
          -25 -6 -13 -35 -35 -6 14 24 vhcurveto
          107 82 callgsubr
          -518 -117 291 177 callgsubr
        </CharString>
        <CharString name="dvD_RA">
          12 38 227 21 callgsubr
          -518 -117 291 177 callgsubr
        </CharString>
        <CharString name="dvD_VA">
          10 216 -26 120 callgsubr
          -516 -117 289 51 callgsubr
          112 callsubr
        </CharString>
        <CharString name="dvD_YA">
          79 545 671 rmoveto
          -585 -117 153 -54 hlineto
          -54 -9 -29 -24 -74 vvcurveto
          -18 vlineto
          -39 15 -30 28 -21 vhcurveto
          -25 -23 -13 -33 -40 vvcurveto
          -20 vlineto
          -92 47 -63 141 42 42 5 7 26 vhcurveto
          -26 130 554 82 vlineto
          -222 hmoveto
          -405 vlineto
          -7 -19 -32 -3 -25 hhcurveto
          -55 -17 8 41 hvcurveto
          4 vlineto
          23 11 20 33 vhcurveto
          34 109 -44 hlineto
          -33 -6 16 23 hvcurveto
          5 140 callgsubr
          127 hlineto
          endchar
        </CharString>
        <CharString name="dvE">
          15 380 142 rmoveto
          46 callgsubr
          -521 -117 81 -370 vlineto
          213 callsubr
          endchar
        </CharString>
        <CharString name="dvEcandra">
          15 294 901 8 callgsubr
          72 185 callsubr
          -54 -759 rmoveto
          46 callgsubr
          -521 -117 81 -370 vlineto
          213 callsubr
          endchar
        </CharString>
        <CharString name="dvEight">
          19 callgsubr
        </CharString>
        <CharString name="dvEyelash">
          -151 -40 554 rmoveto
          498 117 -498 hlineto
          498 -319 rmoveto
          -219 hlineto
          -50 179 callgsubr
          218 hlineto
          endchar
        </CharString>
        <CharString name="dvEyelash_HA">
          240 256 151 rmoveto
          -101 61 -57 135 67 55 6 11 47 vhcurveto
          118 vlineto
          -10 -48 -40 -4 -71 hhcurveto
          -46 -20 13 33 hvcurveto
          20 -73 callsubr
          -746 -117 511 -46 -47 hlineto
          -112 -56 -34 -95 -1 hvcurveto
          -30 hlineto
          -51 179 callgsubr
          58 hlineto
          -18 -19 -9 -26 -38 vvcurveto
          endchar
        </CharString>
        <CharString name="dvEyelash_YA">
          315 493 507 rmoveto
          -88 callsubr
          24 47 hvcurveto
          4 250 callgsubr
          141 rmoveto
          0 7 -20 callsubr
          -65 vlineto
          -50 -21 -13 -68 vhcurveto
          -43 hlineto
          -51 179 callgsubr
          19 -5 hlineto
          -117 93 -50 -49 callsubr
          -69 callsubr
          -821 157 callgsubr
        </CharString>
        <CharString name="dvFive">
          72 callsubr
        </CharString>
        <CharString name="dvFour">
          114 callgsubr
        </CharString>
        <CharString name="dvG">
          -167 234 554 292 callgsubr
          -207 hlineto
          -90 callgsubr
          endchar
        </CharString>
        <CharString name="dvGA">
          68 533 671 rmoveto
          -573 109 callsubr
          hlineto
          -90 callgsubr
          219 195 callgsubr
        </CharString>
        <CharString name="dvGH">
          -144 333 192 rmoveto
          -8 -27 -34 -2 -25 hhcurveto
          -45 -27 -82 callsubr
          10 13 0 vhcurveto
          131 117 -362 -117 87 hlineto
          -35 callgsubr
          -51 vlineto
          -92 61 -68 131 37 37 3 7 32 vhcurveto
          endchar
        </CharString>
        <CharString name="dvGHA">
          79 544 671 rmoveto
          -584 -117 87 hlineto
          47 callgsubr
        </CharString>
        <CharString name="dvGH_MA">
          511 255 182 rmoveto
          -53 -27 -82 callsubr
          10 13 0 vhcurveto
          359 214 callgsubr
          -6 0 -5 1 -6 285 callsubr
          295 31 -78 callsubr
          -1017 155 callgsubr
          37 vhcurveto
          -18 28 38 -10 50 104 callgsubr
          endchar
        </CharString>
        <CharString name="dvGH_NA">
          490 255 182 rmoveto
          -53 -27 -82 callsubr
          10 13 0 vhcurveto
          543 239 callsubr
          -113 vlineto
          -8 0 -8 1 -8 285 callsubr
          479 180 rmoveto
          -362 -107 callgsubr
          -996 -117 87 vlineto
          66 callgsubr
          63 45 13 12 36 vhcurveto
          -20 27 38 -10 51 -66 callsubr
        </CharString>
        <CharString name="dvGH_R">
          -144 333 221 rmoveto
          150 callsubr
          131 117 -362 -117 87 hlineto
          0 -6 -16 -31 vvcurveto
          -25 -38 callsubr
          -39 vlineto
          225 callgsubr
          endchar
        </CharString>
        <CharString name="dvGH_RA">
          83 549 671 rmoveto
          -589 -117 91 hlineto
          0 -6 -16 -31 vvcurveto
          -32 -38 callsubr
          -16 vlineto
          -71 36 -57 77 -22 vhcurveto
          -139 -162 rlineto
          173 hlineto
          141 162 rlineto
          0 vlineto
          -112 195 callsubr
          82 vlineto
          -222 hmoveto
          -342 vlineto
          73 callsubr
          endchar
        </CharString>
        <CharString name="dvGH_YA">
          409 255 182 rmoveto
          -53 -27 -82 callsubr
          10 13 0 vhcurveto
          253 hlineto
          20 callsubr
          -28 5 -24 10 -22 vhcurveto
          -9 -33 -35 -5 -30 hhcurveto
          332 325 -107 callsubr
          206 -430 92 callgsubr
          -915 -117 87 vlineto
          66 callgsubr
          81 84 24 24 44 vhcurveto
          -13 33 38 -6 43 183 callgsubr
          endchar
        </CharString>
        <CharString name="dvG_BA">
          310 561 495 rmoveto
          171 callgsubr
          -123 -64 -39 -129 hvcurveto
          -117 vlineto
          38 callsubr
          -816 109 callsubr
          vlineto
          -90 callgsubr
          219 327 vlineto
          -62 -386 rmoveto
          -28 callsubr
          endchar
        </CharString>
        <CharString name="dvG_BHA">
          487 234 554 rmoveto
          28 117 -302 109 callsubr
          hlineto
          -90 callgsubr
          279 -123 115 callsubr
          -123 -50 -59 -93 hvcurveto
          -75 -57 callgsubr
        </CharString>
        <CharString name="dvG_BH_YA">
          780 234 554 rmoveto
          21 117 -295 109 callsubr
          hlineto
          -90 callgsubr
          263 -123 -89 callgsubr
          65 -86 callsubr
          vhcurveto
          39 hlineto
          148 hmoveto
          44 20 -9 -33 hvcurveto
          -4 vlineto
          -91 callsubr
          -557 -117 126 vlineto
          -61 callgsubr
          -37 -12 -17 -34 -6 vhcurveto
          25 -24 -40 10 -59 hhcurveto
          -16 29 callsubr
        </CharString>
        <CharString name="dvG_DA">
          280 306 217 -76 callgsubr
          -786 109 callsubr
          hlineto
          -90 callgsubr
          219 285 -59 -32 vlineto
          111 callgsubr
          endchar
        </CharString>
        <CharString name="dvG_DHA">
          350 323 554 rmoveto
          0 -11 -17 -30 -21 callsubr
          -51 vlineto
          -97 63 -63 131 43 31 5 5 20 vhcurveto
          -67 -107 callgsubr
          -222 -479 vlineto
          -6 -24 -20 -4 -30 hhcurveto
          -45 -29 -82 callsubr
          16 13 0 vhcurveto
          56 117 -564 109 callsubr
          hlineto
          -90 callgsubr
          219 vlineto
          endchar
        </CharString>
        <CharString name="dvG_DH_VA">
          601 845 499 15 callsubr
          -540 109 callsubr
          hlineto
          -90 callgsubr
          219 84 vlineto
          66 callgsubr
          63 45 13 12 37 vhcurveto
          -31 callsubr
        </CharString>
        <CharString name="dvG_DH_YA">
          686 864 23 callsubr
          -27 5 -24 9 -22 vhcurveto
          -9 -35 -36 -6 -32 hhcurveto
          -53 -27 -82 callsubr
          10 13 0 vhcurveto
          38 117 -540 109 callsubr
          hlineto
          -90 callgsubr
          219 84 vlineto
          85 callgsubr
        </CharString>
        <CharString name="dvG_GA">
          326 791 671 rmoveto
          -831 109 callsubr
          hlineto
          -90 callgsubr
          219 118 -207 vlineto
          -90 callgsubr
          219 195 callgsubr
        </CharString>
        <CharString name="dvG_GHA">
          350 815 671 rmoveto
          -855 109 callsubr
          hlineto
          -90 callgsubr
          219 84 vlineto
          47 callgsubr
        </CharString>
        <CharString name="dvG_JA">
          408 580 232 callgsubr
          -913 109 callsubr
          hlineto
          -90 callgsubr
          219 418 -63 -322 -129 99 vlineto
          0 11 -13 -92 callsubr
          endchar
        </CharString>
        <CharString name="dvG_LA">
          488 296 182 rmoveto
          -123 60 -59 143 29 22 2 2 16 vhcurveto
          -88 callgsubr
          -994 109 callsubr
          vlineto
          -90 callgsubr
          219 498 -7 callgsubr
          endchar
        </CharString>
        <CharString name="dvG_MA">
          454 493 6 callsubr
          -960 109 callsubr
          hlineto
          -90 callgsubr
          219 259 -108 -39 vlineto
          -77 callgsubr
          74 vlineto
          endchar
        </CharString>
        <CharString name="dvG_NA">
          448 692 362 rmoveto
          -362 -107 callgsubr
          -954 109 callsubr
          vlineto
          -90 callgsubr
          219 458 -63 -227 vlineto
          -123 -46 -60 -103 hvcurveto
          -42 callgsubr
        </CharString>
        <CharString name="dvG_NNA">
          508 674 554 rmoveto
          78 -90 callsubr
          -1014 109 callsubr
          hlineto
          -90 callgsubr
          219 84 -288 vlineto
          2 callsubr
          -140 288 rmoveto
          -2 callsubr
          287 vlineto
          endchar
        </CharString>
        <CharString name="dvG_N_YA">
          771 492 365 95 callsubr
          -88 -34 callsubr
          -31 -31 -5 16 23 vhcurveto
          110 -59 callgsubr
          486 142 -101 callsubr
          -25 -5 -15 -13 -10 vhcurveto
          55 -27 -54 27 -77 hhcurveto
          -174 hlineto
          -123 -46 -60 -103 hvcurveto
          -113 28 callsubr
          -1277 109 callsubr
          vlineto
          -90 callgsubr
          219 vlineto
          endchar
        </CharString>
        <CharString name="dvG_R">
          79 callgsubr
          endchar
        </CharString>
        <CharString name="dvG_RA">
          62 callsubr
          endchar
        </CharString>
        <CharString name="dvG_R_YA">
          373 555 507 110 callsubr
          -63 hlineto
          -261 -333 rlineto
          162 hlineto
          45 59 34 44 25 36 20 37 rlinecurve
          -58 37 74 -32 96 -52 callgsubr
          -883 -117 134 -160 vlineto
          -90 callgsubr
          172 vlineto
          endchar
        </CharString>
        <CharString name="dvG_SA">
          482 655 17 -86 callgsubr
          -988 109 callsubr
          hlineto
          -90 callgsubr
          219 267 -63 callsubr
          71 364 rmoveto
          16 callgsubr
          84 hlineto
          endchar
        </CharString>
        <CharString name="dvG_VA">
          282 526 247 callsubr
          -135 vlineto
          -66 callgsubr
          -788 109 callsubr
          vlineto
          -90 callgsubr
          219 292 vlineto
          7 -377 -95 callgsubr
          endchar
        </CharString>
        <CharString name="dvG_YA">
          373 551 23 callsubr
          -91 callsubr
          -879 109 callsubr
          vlineto
          -90 callgsubr
          219 vlineto
          endchar
        </CharString>
        <CharString name="dvGx">
          -167 234 554 292 callgsubr
          -207 hlineto
          -90 callgsubr
          -107 -376 -60 callsubr
        </CharString>
        <CharString name="dvGxA">
          76 127 -41 rmoveto
          -89 callsubr
          414 712 rmoveto
          -573 109 callsubr
          hlineto
          -90 callgsubr
          219 195 callgsubr
        </CharString>
        <CharString name="dvGx_R">
          79 callgsubr
          115 -503 -60 callsubr
        </CharString>
        <CharString name="dvGx_RA">
          62 callsubr
          54 -180 -60 callsubr
        </CharString>
        <CharString name="dvH">
          22 38 158 rmoveto
          -110 81 -55 135 58 52 9 11 39 vhcurveto
          121 vlineto
          -14 -46 -34 -6 -59 hhcurveto
          -54 -32 14 39 hvcurveto
          13 -73 callsubr
          -528 -117 293 -46 -47 hlineto
          14 callgsubr
          405 -404 -45 callsubr
          endchar
        </CharString>
        <CharString name="dvHA">
          22 38 158 rmoveto
          -110 81 -55 135 58 52 9 11 39 vhcurveto
          121 vlineto
          -14 -46 -34 -6 -59 hhcurveto
          -54 -32 14 39 hvcurveto
          13 -73 callsubr
          -528 -117 293 -46 -47 hlineto
          14 callgsubr
          endchar
        </CharString>
        <CharString name="dvHA_mU">
          22 260 -7 rmoveto
          32 15 -7 -35 -36 -16 -7 -32 hvcurveto
          -60 hlineto
          -43 -12 9 46 -37 hvcurveto
          -6 8 rlineto
          -154 hlineto
          59 -76 rlineto
          -78 61 48 -27 66 hhcurveto
          103 hlineto
          104 49 43 119 122 -52 40 -101 hvcurveto
          -40 hlineto
          -46 -20 13 33 hvcurveto
          20 -73 callsubr
          -528 -117 293 -46 -47 hlineto
          14 callgsubr
          -24 vlineto
          -103 62 -57 144 2 vhcurveto
          endchar
        </CharString>
        <CharString name="dvHA_mUU">
          15 31 151 rmoveto
          -60 21 -35 41 -18 vhcurveto
          -18 -19 -8 -26 -34 vvcurveto
          -102 50 -37 91 34 46 5 0 vhcurveto
          108 vlineto
          0 -41 -5 -25 -16 -15 7 25 26 12 7 16 vhcurveto
          25 hlineto
          43 12 6 -46 37 hvcurveto
          97 -123 rlineto
          154 hlineto
          -151 191 rlineto
          78 -62 -48 15 -66 hhcurveto
          -23 hlineto
          -46 -20 13 33 hvcurveto
          20 -73 callsubr
          -521 -117 286 -46 -47 hlineto
          14 callgsubr
          endchar
        </CharString>
        <CharString name="dvHA_mvR">
          116 169 200 rmoveto
          18 6 11 23 vhcurveto
          156 hlineto
          19 5 -4 -16 -16 -5 -4 -19 hvcurveto
          -1 hlineto
          -83 -65 -27 -108 -126 91 -14 97 57 47 7 6 23 hvcurveto
          111 vlineto
          -6 -29 -35 -5 -43 hhcurveto
          -66 -14 5 22 14 7 6 13 hvcurveto
          9 hlineto
          98 47 44 91 91 -47 39 -98 hvcurveto
          -160 hlineto
          287 callgsubr
          3 vlineto
          17 9 6 20 vhcurveto
          252 166 128 117 -622 -117 354 -46 -107 hlineto
          291 callgsubr
          -96 hvcurveto
          -18 vlineto
          1 -44 19 -22 19 -11 rrcurveto
          -19 -11 -19 -18 -48 vvcurveto
          -267 vlineto
          -124 91 -61 135 58 52 9 11 39 vhcurveto
          108 vlineto
          -12 -42 -38 -7 -59 hhcurveto
          -54 -52 17 64 hvcurveto
          endchar
        </CharString>
        <CharString name="dvH_LA">
          643 451 182 rmoveto
          -123 60 -59 143 29 22 2 2 16 vhcurveto
          -88 callgsubr
          -733 -117 511 -7 callgsubr
          endchar
        </CharString>
        <CharString name="dvH_MA">
          285 426 554 rmoveto
          106 -354 -103 4 hlineto
          81 -47 41 -102 vhcurveto
          -73 hlineto
          -20 -9 6 26 hvcurveto
          1 vlineto
          27 9 7 20 vhcurveto
          219 hlineto
          106 -311 rmoveto
          -132 137 604 82 117 -791 -117 326 -46 -79 vlineto
          -113 -56 -30 -106 hvcurveto
          -11 vlineto
          -54 17 -24 27 -16 vhcurveto
          -28 -14 -15 -23 -48 vvcurveto
          -83 242 callgsubr
          99 vlineto
          21 11 8 23 vhcurveto
          49 hlineto
          26 8 -8 -21 hvcurveto
          -169 132 64 vlineto
          endchar
        </CharString>
        <CharString name="dvH_NA">
          635 206 334 rmoveto
          287 callgsubr
          8 vlineto
          17 9 6 20 vhcurveto
          187 166 487 -63 -227 hlineto
          -121 -46 -58 -99 -2 hvcurveto
          396 28 rmoveto
          -362 -107 callgsubr
          -1142 -117 293 -46 -47 vlineto
          14 callgsubr
          -24 vlineto
          -101 61 -57 135 67 55 6 11 47 vhcurveto
          211 callsubr
          267 -4 -16 callgsubr
        </CharString>
        <CharString name="dvH_NNA">
          698 234 -7 rmoveto
          67 55 6 11 47 hvcurveto
          211 callsubr
          295 hlineto
          -74 16 55 -42 103 286 callgsubr
          288 78 -90 callsubr
          -1204 -117 293 -46 -47 vlineto
          14 callgsubr
          -24 vlineto
          -101 61 -57 135 vhcurveto
          274 561 rmoveto
          -220 -302 vlineto
          287 callgsubr
          8 vlineto
          17 9 6 20 vhcurveto
          187 166 hlineto
          331 hmoveto
          -2 callsubr
          287 vlineto
          endchar
        </CharString>
        <CharString name="dvH_R">
          11 callsubr
          427 -438 -45 callsubr
          endchar
        </CharString>
        <CharString name="dvH_RA">
          11 callsubr
          endchar
        </CharString>
        <CharString name="dvH_VA">
          437 681 247 callsubr
          -135 vlineto
          -66 callgsubr
          -527 -117 305 vlineto
          7 -377 -95 callgsubr
          endchar
        </CharString>
        <CharString name="dvH_YA">
          290 454 132 rmoveto
          -13 hlineto
          10 15 5 21 31 vvcurveto
          1 vlineto
          81 -56 40 -122 vhcurveto
          -71 hlineto
          -20 -9 7 27 hvcurveto
          2 vlineto
          27 9 9 20 vhcurveto
          227 161 100 -412 hlineto
          -5 -14 -39 -5 -27 hhcurveto
          -190 hmoveto
          -124 178 vlineto
          34 42 5 5 16 hvcurveto
          -62 140 598 82 117 -796 -117 334 -46 -87 vlineto
          291 callgsubr
          -106 hvcurveto
          -4 vlineto
          -56 19 -28 25 -15 vhcurveto
          -28 -19 -15 -25 -48 vvcurveto
          -73 242 callgsubr
          89 -86 callsubr
          vhcurveto
          53 hlineto
          45 9 -15 -26 hvcurveto
          -3 vlineto
          -37 -25 -3 -36 vhcurveto
          endchar
        </CharString>
        <CharString name="dvI">
          -7 172 169 rmoveto
          -138 -251 138 83 hlineto
          0 30 -7 34 123 41 55 103 vhcurveto
          27 284 callgsubr
          -26 hlineto
          -22 -7 9 18 hvcurveto
          2 vlineto
          19 6 8 23 vhcurveto
          179 170 84 117 -498 -117 274 -50 -39 hlineto
          -113 -56 -39 -103 hvcurveto
          -10 139 callsubr
          26 hlineto
          33 6 -17 -20 hvcurveto
          -17 vlineto
          -25 -9 -14 -35 -21 -23 7 0 vhcurveto
          endchar
        </CharString>
        <CharString name="dvII">
          -7 370 671 rmoveto
          -13 26 -7 26 19 vvcurveto
          32 19 5 27 15 15 -3 0 93 callsubr
          0 -22 6 -58 -66 -71 -25 -107 -41 14 -36 11 -26 31 callgsubr
        </CharString>
        <CharString name="dvII_Anusvara">
          -4 454 704 81 callgsubr
          -84 -33 rmoveto
          -23 36 -10 49 31 vvcurveto
          42 25 20 37 11 16 -2 0 vhcurveto
          113 vlineto
          0 -22 6 -45 -89 -74 -30 -117 -53 17 -59 21 -36 31 callgsubr
        </CharString>
        <CharString name="dvJ">
          -61 415 671 rmoveto
          -455 -117 455 hlineto
          -63 vmoveto
          -325 -129 99 hlineto
          0 11 -13 -95 callsubr
          84 hlineto
          endchar
        </CharString>
        <CharString name="dvJA">
          168 340 324 77 callsubr
        </CharString>
        <CharString name="dvJH">
          16 404 144 rmoveto
          25 vlineto
          19 -4 17 -8 15 vhcurveto
          95 108 -268 hlineto
          116 callgsubr
          99 117 -527 278 callgsubr
          hlineto
          24 callgsubr
          endchar
        </CharString>
        <CharString name="dvJHA">
          222 220 211 56 callgsubr
          -5 20 -8 12 vhcurveto
          78 -220 253 callgsubr
          -727 278 callsubr
          -50 -39 hlineto
          -113 -56 -39 -103 hvcurveto
          -10 139 callsubr
          117 vmoveto
          215 callsubr
          179 276 callgsubr
        </CharString>
        <CharString name="dvJH_MA">
          633 219 328 rmoveto
          116 callgsubr
          284 271 callgsubr
          -107 -52 -45 -73 -11 hvcurveto
          209 -115 -78 callsubr
          -1139 278 callgsubr
          hlineto
          24 callgsubr
          25 vlineto
          19 -4 17 -8 15 vhcurveto
          68 -12 hlineto
          14 callsubr
        </CharString>
        <CharString name="dvJH_NA">
          628 476 328 rmoveto
          -257 hlineto
          116 callgsubr
          484 239 callsubr
          396 34 rmoveto
          -362 -107 callgsubr
          -1134 278 callgsubr
          vlineto
          24 callgsubr
          25 vlineto
          19 -4 17 -8 15 vhcurveto
          84 -5 -16 callgsubr
        </CharString>
        <CharString name="dvJH_R">
          99 165 callsubr
          223 -355 265 callgsubr
          259 170 92 117 -612 -117 380 -50 -119 184 callgsubr
          -10 vlineto
          -107 67 -34 91 vhcurveto
          2 hlineto
          30 6 -18 -19 hvcurveto
          -19 172 callsubr
          endchar
        </CharString>
        <CharString name="dvJH_RA">
          313 165 callsubr
          2 hlineto
          -8 -56 1 -37 -17 vvcurveto
          -5 126 564 83 117 -820 -117 380 -50 -119 vlineto
          -113 276 callsubr
          -107 67 -34 91 vhcurveto
          2 hlineto
          30 6 -18 -19 hvcurveto
          -16 172 callsubr
          92 237 rmoveto
          170 78 -226 -337 265 callgsubr
          endchar
        </CharString>
        <CharString name="dvJH_YA">
          524 219 328 rmoveto
          116 callgsubr
          171 hlineto
          263 callsubr
          -68 hlineto
          249 179 -107 callsubr
          -526 -429 rmoveto
          0 33 -6 37 95 63 253 callsubr
          -4 17 -8 15 vhcurveto
          67 hlineto
          -86 23 85 -48 118 -52 callgsubr
          -1030 278 callgsubr
          vlineto
          53 callsubr
          vlineto
          endchar
        </CharString>
        <CharString name="dvJ_BA">
          439 690 495 rmoveto
          171 callgsubr
          -41 -35 -4 -11 -27 hvcurveto
          -419 -129 99 hlineto
          0 11 -13 -95 callsubr
          96 hlineto
          -1 -10 -1 -11 -12 vvcurveto
          -117 vlineto
          38 callsubr
          -945 -117 730 vlineto
          -62 -386 rmoveto
          -28 callsubr
          endchar
        </CharString>
        <CharString name="dvJ_DA">
          394 420 217 -76 callgsubr
          -900 -117 673 -59 -32 hlineto
          -6 0 -505 -129 99 hlineto
          0 11 -20 callsubr
          -92 -98 callsubr
          106 53 callgsubr
          91 hlineto
          -1 -12 -1 -13 -14 vvcurveto
          endchar
        </CharString>
        <CharString name="dvJ_DDA">
          368 771 163 -53 callsubr
          -872 -117 641 -50 -34 hlineto
          -36 -31 -4 -9 -24 hvcurveto
          -386 -129 99 hlineto
          0 11 -13 -95 callsubr
          67 hlineto
          -3 0 -3 -3 123 callsubr
        </CharString>
        <CharString name="dvJ_JA">
          505 677 324 18 callsubr
        </CharString>
        <CharString name="dvJ_JHA">
          586 584 211 56 callgsubr
          -5 20 -8 12 vhcurveto
          78 -220 253 callgsubr
          -1091 -117 652 -50 -39 hlineto
          -36 -31 -4 -9 -24 hvcurveto
          -392 -129 99 hlineto
          0 11 -13 -95 callsubr
          73 hlineto
          -3 0 -3 -3 vvcurveto
          -10 139 callsubr
          117 vmoveto
          215 callsubr
          179 276 callgsubr
        </CharString>
        <CharString name="dvJ_J_NYA">
          597 415 491 rmoveto
          -325 -129 99 hlineto
          0 11 -13 -95 callsubr
          84 hlineto
          426 183 rmoveto
          -63 -330 -120 112 vlineto
          -8 callsubr
          79 -371 -107 callgsubr
          -1103 -117 hlineto
          endchar
        </CharString>
        <CharString name="dvJ_J_VA">
          745 989 244 callsubr
          -745 40 callsubr
          92 hlineto
          -1 -8 0 -8 -9 vvcurveto
          -135 vlineto
          -66 callgsubr
          -1251 -117 1029 vlineto
          7 -377 -95 callgsubr
          endchar
        </CharString>
        <CharString name="dvJ_J_YA">
          830 1008 45 callsubr
          -21 -4 -14 -9 -10 vhcurveto
          44 -16 -55 33 -98 hhcurveto
          -600 40 callsubr
          8 hlineto
          62 21 -10 -33 hvcurveto
          -58 vlineto
          -91 callsubr
          -1336 157 callgsubr
        </CharString>
        <CharString name="dvJ_KA">
          596 639 554 rmoveto
          -380 vlineto
          -100 callgsubr
          -32 -27 -5 -9 -22 vhcurveto
          -407 -129 99 hlineto
          0 11 -13 -95 callsubr
          92 hlineto
          -1 -7 0 -8 -8 61 callsubr
          -1103 157 callgsubr
        </CharString>
        <CharString name="dvJ_MA">
          583 756 1 callsubr
          -1089 -117 662 271 callgsubr
          -22 -19 -2 -3 -17 hvcurveto
          31 -24 -48 19 -79 hhcurveto
          -284 -129 99 hlineto
          0 11 -13 -95 callsubr
          15 hlineto
          39 23 -3 -11 12 hvcurveto
          -7 -19 -3 -21 -23 149 callgsubr
        </CharString>
        <CharString name="dvJ_NA">
          564 808 362 rmoveto
          -362 -107 callgsubr
          -1070 -117 848 279 callgsubr
          -49 -37 -10 -18 -26 hvcurveto
          21 -31 -45 7 -45 hhcurveto
          -258 -129 99 hlineto
          0 11 -13 -95 callsubr
          50 hlineto
          13 11 -2 -3 9 hvcurveto
          -1 -12 -1 -12 -14 vvcurveto
          -42 callgsubr
        </CharString>
        <CharString name="dvJ_NY">
          12 564 671 rmoveto
          -604 -117 604 hlineto
          -63 vmoveto
          -434 -120 112 hlineto
          -8 callsubr
          183 hlineto
          endchar
        </CharString>
        <CharString name="dvJ_NYA">
          216 460 554 rmoveto
          -63 -330 -120 112 vlineto
          -8 callsubr
          79 -371 -107 callgsubr
          -722 -117 hlineto
          endchar
        </CharString>
        <CharString name="dvJ_NY_YA">
          531 242 371 rmoveto
          -8 callsubr
          11 hlineto
          58 9 -14 -31 1 hvcurveto
          -56 vlineto
          -91 callsubr
          -1037 -117 606 vlineto
          -61 callgsubr
          -19 -3 -13 -7 -10 vhcurveto
          46 -15 -53 28 -93 hhcurveto
          -272 -120 hlineto
          467 -81 rmoveto
          18 vlineto
          77 4 35 41 77 vvcurveto
          77 vlineto
          -102 callgsubr
          endchar
        </CharString>
        <CharString name="dvJ_R">
          -10 188 -56 50 callsubr
        </CharString>
        <CharString name="dvJ_RA">
          27 callgsubr
          endchar
        </CharString>
        <CharString name="dvJ_TA">
          426 424 154 -74 callsubr
          -932 -117 710 200 callgsubr
          -19 -18 -2 -3 -16 vhcurveto
          -456 -129 99 hlineto
          0 11 -13 -95 callsubr
          97 hlineto
          -3 -15 -1 -16 -17 vvcurveto
          endchar
        </CharString>
        <CharString name="dvJ_TTA">
          390 564 179 callsubr
          -886 -117 656 -63 -6 hlineto
          -5 -5 0 -5 hhcurveto
          0 -505 -129 99 vlineto
          0 11 -13 -95 callsubr
          99 hlineto
          -4 -17 -2 -19 -20 85 callsubr
        </CharString>
        <CharString name="dvJ_VA">
          410 654 244 callsubr
          -410 -129 99 hlineto
          0 11 -13 -95 callsubr
          94 hlineto
          -1 -8 0 -8 -9 vvcurveto
          -135 vlineto
          -66 callgsubr
          -916 -117 694 vlineto
          7 -377 -95 callgsubr
          endchar
        </CharString>
        <CharString name="dvJ_YA">
          491 669 45 callsubr
          -16 -2 -12 -5 -9 vhcurveto
          42 -18 -50 27 -94 hhcurveto
          -274 -129 99 hlineto
          0 11 -13 -95 callsubr
          5 hlineto
          62 22 -9 -34 hvcurveto
          -58 vlineto
          -91 callsubr
          -997 157 callgsubr
        </CharString>
        <CharString name="dvJx">
          -61 115 -150 rmoveto
          -39 callsubr
          300 821 rmoveto
          -455 -117 455 hlineto
          -63 vmoveto
          -325 -129 99 hlineto
          0 11 -13 -95 callsubr
          84 hlineto
          endchar
        </CharString>
        <CharString name="dvJxA">
          168 64 -139 rmoveto
          -39 callsubr
          276 463 77 callsubr
        </CharString>
        <CharString name="dvJx_JxA">
          505 45 18 232 callsubr
          348 -150 rmoveto
          -39 callsubr
          284 456 18 callsubr
        </CharString>
        <CharString name="dvJx_R">
          -10 85 -90 rmoveto
          -89 callsubr
          103 34 50 callsubr
        </CharString>
        <CharString name="dvJx_RA">
          27 callgsubr
          -269 -452 -60 callsubr
        </CharString>
        <CharString name="dvJx_YA">
          491 44 -129 rmoveto
          -39 callsubr
          625 636 -101 callsubr
          -16 -2 -12 -5 -9 vhcurveto
          42 -18 -50 27 -94 hhcurveto
          -274 -129 99 hlineto
          0 11 -20 callsubr
          -78 -98 callsubr
          92 53 callgsubr
          5 hlineto
          62 22 -9 -34 hvcurveto
          -58 vlineto
          -91 callsubr
          -997 157 callgsubr
        </CharString>
        <CharString name="dvK">
          -3 383 380 27 callsubr
        </CharString>
        <CharString name="dvKA">
          206 247 554 rmoveto
          -287 117 711 -70 callsubr
          endchar
        </CharString>
        <CharString name="dvKH">
          153 529 256 -19 callsubr
        </CharString>
        <CharString name="dvKHA">
          367 402 256 9 callgsubr
          -872 -117 270 vlineto
          0 10 -13 -34 vvcurveto
          -119 vlineto
          -23 -7 -16 -33 -13 -9 1 1 -12 vhcurveto
          100 -133 -258 vlineto
          37 callgsubr
        </CharString>
        <CharString name="dvKH_KHA">
          947 101 callsubr
          666 -35 58 callsubr
          -211 -114 30 callgsubr
          82 117 -1453 -117 270 vlineto
          -93 callsubr
          449 hlineto
          -58 callsubr
          -13 -10 1 1 -11 vhcurveto
          93 -5 -45 48 -126 hhcurveto
          -6 callgsubr
          22 20 2 3 17 vhcurveto
          -65 27 63 -44 110 hhcurveto
          40 55 6 13 37 hvcurveto
          -99 callgsubr
          250 -63 hlineto
          0 -26 5 -33 -123 -29 -59 -103 vhcurveto
          endchar
        </CharString>
        <CharString name="dvKH_MA">
          779 818 6 callsubr
          -1285 -117 270 hlineto
          -93 callsubr
          455 271 callgsubr
          -24 -21 -2 -5 -18 hvcurveto
          35 -24 -44 18 -76 hhcurveto
          -6 callgsubr
          28 23 2 5 20 vhcurveto
          -32 25 43 -19 68 104 callgsubr
          -497 -72 -58 callgsubr
          endchar
        </CharString>
        <CharString name="dvKH_NA">
          767 101 callsubr
          482 106 rmoveto
          -362 -107 callgsubr
          -1273 -117 270 vlineto
          -93 callsubr
          648 -63 -227 hlineto
          -45 -34 -8 -15 -26 hvcurveto
          16 -22 -34 8 -51 hhcurveto
          -6 callgsubr
          28 23 3 7 19 vhcurveto
          -37 25 46 -20 71 -66 callsubr
        </CharString>
        <CharString name="dvKH_R">
          -25 callgsubr
          endchar
        </CharString>
        <CharString name="dvKH_RA">
          365 -23 callsubr
          endchar
        </CharString>
        <CharString name="dvKH_SHA">
          -36 callgsubr
          vhcurveto
          -48 hlineto
          71 -12 -43 37 -110 hhcurveto
          -133 -35 -54 -103 hvcurveto
          -49 vlineto
          -103 35 -54 133 22 19 1 3 16 vhcurveto
          -60 23 53 -41 99 hhcurveto
          62 45 9 13 37 hvcurveto
          -72 callgsubr
          endchar
        </CharString>
        <CharString name="dvKH_TA">
          607 381 14 -26 callgsubr
          148 242 -58 callgsubr
          endchar
        </CharString>
        <CharString name="dvKH_VA">
          601 101 callsubr
          323 -79 -95 callgsubr
          -7 116 184 callsubr
          -53 -38 -11 -21 -26 hvcurveto
          11 -21 -29 7 -40 hhcurveto
          -6 callgsubr
          27 21 4 6 18 vhcurveto
          -37 24 44 -20 73 hhcurveto
          29 22 4 3 15 hvcurveto
          143 callgsubr
          -1107 -117 270 vlineto
          -93 callsubr
          482 hlineto
          endchar
        </CharString>
        <CharString name="dvKH_YA">
          686 101 callsubr
          335 251 -101 callsubr
          -23 -5 -16 -11 -9 vhcurveto
          47 -14 -36 34 -90 hhcurveto
          -6 callgsubr
          52 34 13 21 22 vhcurveto
          -31 41 57 -16 69 -52 callgsubr
          -1192 -117 270 vlineto
          -93 callsubr
          endchar
        </CharString>
        <CharString name="dvKHx">
          153 47 -146 rmoveto
          -39 callsubr
          482 402 -19 callsubr
        </CharString>
        <CharString name="dvKHxA">
          370 50 -146 15 callgsubr
          357 402 30 callgsubr
          82 117 -876 175 callgsubr
          vlineto
          0 10 -13 -34 vvcurveto
          -119 vlineto
          -23 -7 -16 -33 -13 -9 1 1 -12 vhcurveto
          100 -133 -258 vlineto
          37 callgsubr
        </CharString>
        <CharString name="dvKHx_MA">
          788 101 callsubr
          -478 -402 15 callgsubr
          776 359 -78 callsubr
          -1294 -117 270 hlineto
          -93 callsubr
          464 271 callgsubr
          -27 -23 -3 -5 -21 hvcurveto
          36 -23 -44 18 -78 hhcurveto
          -6 callgsubr
          29 25 3 5 20 vhcurveto
          -33 27 46 -19 69 104 callgsubr
          endchar
        </CharString>
        <CharString name="dvKHx_R">
          -25 callgsubr
          287 -8 -60 callsubr
        </CharString>
        <CharString name="dvKHx_RA">
          371 -23 callsubr
          -108 -524 -60 callsubr
        </CharString>
        <CharString name="dvKHx_SA">
          780 50 -146 15 callgsubr
          903 163 -86 callgsubr
          -1286 -117 270 hlineto
          -93 callsubr
          436 hlineto
          0 10 -20 callsubr
          -123 vlineto
          -23 -6 -16 -33 229 callgsubr
          vhcurveto
          94 -4 -37 49 -127 hhcurveto
          -6 callgsubr
          20 18 1 3 15 vhcurveto
          -65 21 56 -43 107 hhcurveto
          62 45 9 13 37 hvcurveto
          -43 callsubr
          -495 -298 -58 callgsubr
          endchar
        </CharString>
        <CharString name="dvKHx_SHA">
          -36 callgsubr
          -16 -16 0 1 -17 vhcurveto
          70 -12 -43 37 -109 hhcurveto
          -133 -35 -54 -103 hvcurveto
          -49 vlineto
          -103 35 -54 133 22 19 1 3 16 vhcurveto
          -60 23 53 -41 99 hhcurveto
          62 45 9 13 37 hvcurveto
          -72 callgsubr
          -913 -533 15 callgsubr
          endchar
        </CharString>
        <CharString name="dvKHx_TA">
          607 47 -146 15 callgsubr
          482 402 rmoveto
          79 vlineto
          25 8 15 35 35 8 -15 -25 vhcurveto
          -79 vlineto
          -25 -8 -15 -35 -35 -8 15 25 vhcurveto
          -148 -242 -26 callgsubr
          endchar
        </CharString>
        <CharString name="dvKHx_VA">
          601 51 -146 15 callgsubr
          478 191 callgsubr
          323 -79 -95 callgsubr
          -7 116 184 callsubr
          -53 -38 -11 -21 -26 hvcurveto
          11 -21 -29 7 -40 hhcurveto
          -6 callgsubr
          27 21 4 6 18 vhcurveto
          -37 24 44 -20 73 hhcurveto
          29 22 4 3 15 hvcurveto
          143 callgsubr
          -1107 -117 270 vlineto
          -93 callsubr
          482 hlineto
          endchar
        </CharString>
        <CharString name="dvKHx_YA">
          686 51 -146 15 callgsubr
          478 191 callgsubr
          335 251 -101 callsubr
          -23 -5 -16 -11 -9 vhcurveto
          47 -14 -36 34 -90 hhcurveto
          -6 callgsubr
          52 34 13 21 22 vhcurveto
          -31 41 57 -16 69 -52 callgsubr
          -1192 -117 270 vlineto
          -93 callsubr
          endchar
        </CharString>
        <CharString name="dvK_CA">
          494 383 hmoveto
          260 callsubr
          -40 37 vlineto
          0 -6 -19 -30 vvcurveto
          -35 212 callgsubr
          -999 -48 callgsubr
          vlineto
          446 176 rmoveto
          -33 -21 13 35 hvcurveto
          29 vlineto
          42 11 14 0 vhcurveto
          53 120 -125 hlineto
          49 -19 -43 27 -83 251 callsubr
          54 355 -371 vlineto
          -4 -12 -15 -3 -19 hhcurveto
          endchar
        </CharString>
        <CharString name="dvK_DA">
          441 432 505 rmoveto
          98 callgsubr
          hvcurveto
          54 297 -59 -32 vlineto
          -44 -36 -5 -12 -28 hvcurveto
          18 -25 -35 9 -48 hhcurveto
          35 -288 -76 callgsubr
          -947 -62 callgsubr
          -4 vlineto
          0 vlineto
          -3 vlineto
          endchar
        </CharString>
        <CharString name="dvK_JA">
          724 609 184 rmoveto
          -84 callgsubr
          102 vlineto
          137 callgsubr
          -1229 -62 callgsubr
          -81 141 86 vlineto
          98 -55 59 -121 98 callgsubr
          vhcurveto
          54 585 -63 -285 -129 62 vlineto
          0 11 -20 callsubr
          -88 60 callsubr
          endchar
        </CharString>
        <CharString name="dvK_KA">
          642 642 166 rmoveto
          -35 -7 17 25 hvcurveto
          -93 callgsubr
          -40 -32 -7 -15 -24 vhcurveto
          14 -24 -32 8 -41 hhcurveto
          -17 -22 -3 -2 -8 hvcurveto
          54 301 -380 vlineto
          0 -17 -8 -25 vhcurveto
          -259 -166 rmoveto
          293 callgsubr
          12 -16 -26 hvcurveto
          -141 -46 callgsubr
          -1148 -48 callgsubr
          vlineto
          endchar
        </CharString>
        <CharString name="dvK_KHA">
          799 836 256 9 callgsubr
          -1306 -117 287 -380 vlineto
          -97 callgsubr
          -150 vlineto
          -44 callgsubr
          -99 callgsubr
          250 -63 hlineto
          0 -26 5 -33 -123 -29 -59 -103 vhcurveto
          211 -113 58 callsubr
          -413 -21 rmoveto
          -13 -10 1 1 -11 hvcurveto
          95 -47 59 -121 98 callgsubr
          vhcurveto
          54 281 vlineto
          -58 callsubr
          vhcurveto
          endchar
        </CharString>
        <CharString name="dvK_LA">
          659 752 439 rmoveto
          -41 callgsubr
          -38 -32 -7 -13 -26 hvcurveto
          20 -25 -36 11 -52 251 callsubr
          54 520 -66 vlineto
          0 callgsubr
          -285 -257 rmoveto
          -123 60 -59 143 29 22 2 2 16 vhcurveto
          -88 callgsubr
          -1165 -117 287 -380 vlineto
          -97 callgsubr
          -4 vlineto
          0 vlineto
          -2 0 -3 -3 vvcurveto
          endchar
        </CharString>
        <CharString name="dvK_MA">
          640 432 505 rmoveto
          98 callgsubr
          hvcurveto
          54 296 -108 -39 vlineto
          -23 -20 -2 -4 -18 hvcurveto
          42 -24 -47 23 -76 hhcurveto
          247 -292 -78 callsubr
          -1146 -62 callgsubr
          -135 39 callgsubr
        </CharString>
        <CharString name="dvK_NA">
          619 422 504 rmoveto
          -11 -21 -2 -2 -8 hvcurveto
          54 481 279 callgsubr
          -40 -32 -6 -12 -24 hvcurveto
          20 -27 -39 11 -52 hhcurveto
          441 -142 rmoveto
          -362 -107 callgsubr
          -1125 -117 286 -380 vlineto
          -79 callsubr
          382 vlineto
          1 6 13 1 8 296 callsubr
          -3 0 -3 -4 vvcurveto
          -42 callgsubr
        </CharString>
        <CharString name="dvK_NNA">
          687 853 554 rmoveto
          78 -90 callsubr
          -1193 -117 287 -380 hlineto
          -41 callsubr
          -47 vlineto
          2 callsubr
          -470 202 rmoveto
          87 callgsubr
          330 86 rmoveto
          -2 callsubr
          287 vlineto
          endchar
        </CharString>
        <CharString name="dvK_PA">
          479 383 350 rmoveto
          3 10 33 2 13 119 callsubr
          -41 220 callgsubr
          -985 -35 callsubr
          468 vmoveto
          87 callgsubr
          340 86 rmoveto
          -309 -12 callsubr
          276 vlineto
          endchar
        </CharString>
        <CharString name="dvK_PHA">
          677 715 hmoveto
          -96 callgsubr
          -1183 -117 287 -380 vlineto
          -41 callsubr
          -55 59 callsubr
          -332 362 rmoveto
          87 callgsubr
          332 -240 -60 callgsubr
          endchar
        </CharString>
        <CharString name="dvK_P_RA">
          479 723 hmoveto
          -107 callgsubr
          -985 -117 287 -380 hlineto
          -79 callsubr
          365 vlineto
          3 10 33 2 13 296 callsubr
          3 -65 22 -44 51 -21 -108 -194 rcurveline
          153 hlineto
          105 188 rlineto
          0 0 0 0 vhcurveto
          -340 295 rmoveto
          71 114 -69 vlineto
          3 -15 -17 2 -18 hhcurveto
          -17 -29 -3 -4 -18 hvcurveto
          340 71 rmoveto
          29 callgsubr
        </CharString>
        <CharString name="dvK_R">
          34 509 343 17 callsubr
        </CharString>
        <CharString name="dvK_RA">
          3 callgsubr
          endchar
        </CharString>
        <CharString name="dvK_SA">
          647 820 17 -86 callgsubr
          -1153 -117 287 -380 hlineto
          0 -17 -8 -25 -35 -7 17 25 vhcurveto
          135 vlineto
          25 7 17 35 5 5 -1 0 vhcurveto
          118 vlineto
          0 -13 3 -16 -110 -46 -54 -103 vhcurveto
          22 callsubr
        </CharString>
        <CharString name="dvK_SHA">
          642 886 671 124 callgsubr
          -283 -158 -10 callsubr
          -5 0 -6 1 -5 168 callgsubr
          126 callsubr
          -461 5 callgsubr
          13 2 13 hhcurveto
          38 10 -12 -30 hvcurveto
          -122 vlineto
          -103 55 -86 143 62 45 9 13 37 vhcurveto
          193 callsubr
          22 -22 callsubr
          endchar
        </CharString>
        <CharString name="dvK_SS">
          -426 endchar
        </CharString>
        <CharString name="dvK_SSA">
          -426 endchar
        </CharString>
        <CharString name="dvK_SS_MA">
          -426 endchar
        </CharString>
        <CharString name="dvK_SS_M_YA">
          946 664 213 -84 callsubr
          187 118 rmoveto
          -53 108 183 hlineto
          0 7 -13 -34 vvcurveto
          -48 97 callsubr
          273 61 -107 callsubr
          206 -430 92 callgsubr
          -962 -117 214 -108 -39 vlineto
          -77 callgsubr
          38 vlineto
          30 9 -4 -21 hvcurveto
          -33 vlineto
          -117 292 callsubr
          -95 vlineto
          endchar
        </CharString>
        <CharString name="dvK_SS_VA">
          456 700 247 callsubr
          -135 vlineto
          -66 callgsubr
          -457 -117 235 vlineto
          7 -377 -95 callgsubr
          endchar
        </CharString>
        <CharString name="dvK_SS_YA">
          535 713 507 -103 callsubr
          57 250 callgsubr
          85 rmoveto
          0 7 -20 callsubr
          -9 vlineto
          -50 -21 -13 -68 vhcurveto
          -24 -165 hlineto
          -91 callsubr
          -537 157 callgsubr
        </CharString>
        <CharString name="dvK_S_DDA">
          859 813 382 rmoveto
          125 -68 callsubr
          285 -50 -34 hlineto
          -106 -56 -34 -89 -6 hvcurveto
          -77 hlineto
          -176 -36 -44 callsubr
          625 -182 -53 callsubr
          -1363 -117 287 -380 hlineto
          -46 callsubr
          129 hlineto
          -47 24 53 -19 76 hhcurveto
          78 callsubr
        </CharString>
        <CharString name="dvK_S_P_LA">
          1340 637 345 -44 callsubr
          279 209 rmoveto
          -173 -103 1 vlineto
          125 -68 callsubr
          301 -316 rmoveto
          -39 -13 14 26 hvcurveto
          276 528 -7 callgsubr
          -90 vlineto
          -2 -13 -15 -1 -12 hhcurveto
          -288 -221 rmoveto
          -98 callgsubr
          140 hlineto
          -96 3 45 -51 122 hhcurveto
          23 25 2 3 21 hvcurveto
          -80 19 61 -39 116 hhcurveto
          -5 callgsubr
          hvcurveto
          -88 callgsubr
          -1846 -117 287 -380 vlineto
          -97 callgsubr
          -169 274 callsubr
          endchar
        </CharString>
        <CharString name="dvK_S_P_RA">
          884 637 345 -44 callsubr
          265 209 rmoveto
          -173 -89 1 vlineto
          125 -68 callsubr
          321 -554 rmoveto
          -107 callgsubr
          -1390 -117 287 -380 hlineto
          -46 callsubr
          138 hlineto
          11 -31 21 -23 32 -13 -108 -194 rcurveline
          -37 callsubr
        </CharString>
        <CharString name="dvK_S_TA">
          894 813 382 rmoveto
          125 -68 callsubr
          331 -64 hlineto
          0 -27 6 -44 -98 -53 -45 -70 -17 vhcurveto
          -86 hlineto
          -176 -36 -44 callsubr
          255 -191 -74 callsubr
          -1400 -117 287 -380 vlineto
          -46 callsubr
          116 hlineto
          endchar
        </CharString>
        <CharString name="dvK_S_TTA">
          848 813 382 rmoveto
          125 -68 callsubr
          277 250 callsubr
          -88 hlineto
          -176 -36 -44 callsubr
          395 -41 -7 callsubr
          -1354 -117 287 -380 hlineto
          -46 callsubr
          116 93 callgsubr
        </CharString>
        <CharString name="dvK_TA">
          258 432 368 rmoveto
          -91 callgsubr
          66 292 117 -764 -117 336 -68 vlineto
          0 -29 5 -34 vhcurveto
          -213 -118 62 hlineto
          -5 -14 -2 -14 -16 vvcurveto
          -126 vlineto
          -103 39 -58 113 8 6 0 2 11 vhcurveto
          -4 callgsubr
          -35 -9 6 32 hvcurveto
          117 vlineto
          25 9 17 35 18 26 -4 0 vhcurveto
          -367 136 vlineto
          endchar
        </CharString>
        <CharString name="dvK_THA">
          604 610 296 -22 callgsubr
          -54 hlineto
          21 -24 -37 11 -53 251 callsubr
          105 62 117 -485 -48 callgsubr
          137 329 vlineto
          153 callgsubr
          -4 vlineto
          0 vlineto
          -135 24 callsubr
        </CharString>
        <CharString name="dvK_TTA">
          424 607 181 rmoveto
          123 vlineto
          38 23 22 40 vhcurveto
          129 190 90 117 -929 -62 callgsubr
          -4 1 vlineto
          -1 -8 0 -8 -8 vvcurveto
          -11 callsubr
          -175 324 rmoveto
          98 callgsubr
          hvcurveto
          54 276 -63 -6 vlineto
          -42 -34 -7 -14 -28 hvcurveto
          23 -25 -37 12 -55 hhcurveto
          endchar
        </CharString>
        <CharString name="dvK_T_RA">
          506 432 505 rmoveto
          98 callgsubr
          hvcurveto
          54 367 -68 vlineto
          0 -34 10 -56 -48 -37 -8 -15 -29 vhcurveto
          21 -25 -37 11 -52 hhcurveto
          337 -332 136 callsubr
          -1012 -117 287 -380 vlineto
          -97 callgsubr
          -24 vlineto
          0 vlineto
          -1 0 -1 -2 vvcurveto
          74 callgsubr
        </CharString>
        <CharString name="dvK_T_VA">
          688 432 505 rmoveto
          98 callgsubr
          hvcurveto
          54 549 125 callgsubr
          -39 -31 -6 -12 -24 hvcurveto
          2 -26 -33 6 -55 hhcurveto
          -47 -37 -8 -15 -28 hvcurveto
          21 -25 -37 11 -52 hhcurveto
          224 -375 rmoveto
          273 callsubr
          11 13 0 -1 13 vhcurveto
          -1 -6 0 -7 -7 vvcurveto
          -135 vlineto
          -66 callgsubr
          -1194 -117 287 -380 vlineto
          -97 callgsubr
          -189 vlineto
          84 callgsubr
          vhcurveto
          30 hlineto
          283 179 -95 callgsubr
          endchar
        </CharString>
        <CharString name="dvK_T_YA">
          772 673 462 rmoveto
          -13 hlineto
          -37 -31 -4 -8 -25 hvcurveto
          35 -23 -42 20 -70 251 callsubr
          54 424 vlineto
          -61 callgsubr
          -14 -2 -12 -4 -8 vhcurveto
          24 -28 -45 13 -62 hhcurveto
          278 45 -107 callsubr
          -295 -430 rmoveto
          127 callsubr
          11 hlineto
          14 9 -4 -5 7 hvcurveto
          -54 vlineto
          -91 callsubr
          -1278 -117 287 -380 vlineto
          -97 callgsubr
          -189 vlineto
          103 callsubr
          endchar
        </CharString>
</ttFont>
